<?xml version="1.0" standalone="no"?>
<!DOCTYPE svg PUBLIC "-//W3C//DTD SVG 20010904//EN"
 "http://www.w3.org/TR/2001/REC-SVG-20010904/DTD/svg10.dtd">
<svg version="1.0" xmlns="http://www.w3.org/2000/svg"
 width="512.000000pt" height="512.000000pt" viewBox="0 0 512.000000 512.000000"
 preserveAspectRatio="xMidYMid meet">
<metadata>
Created by potrace 1.11, written by Peter Selinger 2001-2013
</metadata>
<g transform="translate(0.000000,512.000000) scale(0.100000,-0.100000)"
fill="#000000" stroke="none">
<path d="M2378 5088 c12 -12 54 -19 47 -7 -9 14 1 11 13 -4 9 -10 -2 -13 -54
-13 -36 1 -68 -2 -70 -6 -3 -4 -18 -6 -34 -4 -18 2 -31 -2 -34 -11 -4 -9 -1
-12 7 -7 8 5 8 3 -1 -7 -11 -12 -16 -11 -29 6 -13 16 -15 17 -10 3 6 -18 -12
-24 -52 -18 -9 1 -12 -5 -9 -17 4 -16 -1 -19 -31 -20 -62 -3 -78 -7 -78 -19 0
-10 6 -10 21 -3 21 10 21 10 1 -6 -11 -9 -29 -14 -40 -13 -11 2 -28 -7 -38
-19 -10 -13 -29 -23 -43 -23 -22 0 -29 -10 -25 -33 1 -5 -3 -6 -9 -2 -6 3 -8
10 -5 15 3 5 1 12 -5 15 -6 4 -10 3 -9 -2 4 -24 -4 -33 -28 -33 -22 0 -25 -2
-13 -10 13 -8 12 -10 -3 -10 -10 0 -15 -4 -12 -10 5 -8 -21 -15 -47 -12 -3 1
-12 -6 -20 -16 -11 -15 -11 -16 3 -4 14 10 18 10 23 -5 4 -10 4 -14 0 -10 -4
4 -18 0 -32 -9 -13 -9 -21 -11 -18 -5 4 6 2 11 -3 11 -10 0 -15 -14 -12 -32 0
-5 -7 -8 -18 -8 -18 0 -45 -23 -36 -31 2 -3 -4 -5 -13 -6 -9 -1 -38 -3 -64 -4
-30 -2 -48 -8 -48 -16 0 -14 -44 -28 -59 -19 -5 4 -12 2 -15 -2 -3 -5 -19 -8
-35 -7 -18 1 -32 -4 -35 -12 -4 -9 -1 -12 7 -7 9 5 9 4 1 -5 -6 -7 -29 -13
-51 -14 -28 -1 -40 -5 -39 -15 1 -15 -22 -24 -58 -23 -10 0 -20 -9 -23 -20 -4
-12 -14 -19 -30 -19 -17 0 -23 -5 -21 -17 2 -12 -3 -18 -14 -17 -10 1 -18 -2
-18 -7 0 -5 -3 -8 -7 -8 -23 4 -35 -3 -29 -16 5 -14 -5 -19 -31 -16 -7 1 -13
-5 -13 -13 0 -14 -50 -48 -66 -45 -3 0 -8 -2 -11 -5 -3 -3 5 -3 17 -1 15 3 20
1 14 -5 -8 -8 -39 -17 -68 -19 -5 -1 -6 -4 -3 -8 11 -10 -13 -32 -29 -26 -8 3
-14 0 -14 -7 0 -6 -5 -8 -12 -4 -8 5 -8 1 2 -12 8 -10 11 -16 6 -12 -12 10
-46 -10 -46 -26 0 -7 -7 -13 -15 -14 -8 -1 -21 -3 -29 -4 -8 -1 -12 -7 -10
-13 3 -7 -2 -18 -10 -25 -9 -7 -14 -16 -11 -20 3 -5 1 -11 -4 -15 -6 -3 -8 3
-6 15 2 11 0 20 -5 20 -5 0 -10 -10 -12 -22 -2 -13 -9 -23 -17 -23 -8 0 -16
-7 -18 -15 -4 -12 -3 -12 5 -2 7 11 11 10 16 -4 4 -10 4 -15 0 -12 -12 12 -44
-11 -37 -28 3 -9 0 -14 -8 -12 -7 2 -18 -7 -24 -19 -5 -13 -18 -23 -28 -23
-10 0 -16 -4 -13 -9 9 -15 -5 -42 -18 -34 -6 3 -3 -3 8 -15 18 -21 18 -21 -8
-16 -23 4 -26 1 -26 -22 0 -19 -4 -25 -15 -20 -8 3 -16 1 -16 -4 -1 -6 -3 -14
-4 -20 -1 -5 -3 -17 -4 -26 -1 -9 -6 -12 -14 -8 -7 5 -6 0 3 -11 14 -17 13
-18 -5 -13 -18 4 -21 0 -22 -35 -2 -36 -18 -62 -33 -52 -3 2 -6 -13 -7 -33 -2
-21 -3 -47 -4 -59 -1 -13 -5 -20 -10 -18 -11 8 -21 -12 -25 -52 -2 -19 -9 -42
-16 -51 -10 -12 -10 -14 0 -8 6 4 12 2 12 -3 0 -6 -6 -11 -14 -11 -8 0 -18 -5
-22 -12 -5 -7 -3 -8 6 -3 7 4 2 -6 -10 -23 -13 -17 -29 -33 -36 -36 -7 -3 -11
-14 -9 -26 5 -24 2 -25 -16 -3 -12 14 -12 16 0 8 10 -5 12 -4 7 4 -10 15 -27
4 -20 -13 3 -9 -3 -17 -15 -21 -12 -3 -21 -11 -21 -17 0 -7 4 -7 13 1 10 8 14
7 14 -4 0 -8 -4 -12 -8 -9 -11 6 -40 -26 -33 -37 3 -6 -2 -9 -12 -7 -13 2 -19
-3 -19 -17 0 -11 -6 -24 -13 -28 -7 -5 -10 -12 -7 -17 3 -5 1 -11 -4 -15 -6
-3 -8 3 -6 15 2 11 0 20 -6 20 -8 0 -14 -30 -10 -52 0 -5 -5 -8 -11 -8 -9 0
-8 -4 2 -11 12 -9 11 -10 -6 -6 -11 2 -21 -1 -22 -7 0 -6 -2 -26 -3 -43 -2
-34 -12 -42 -25 -21 -4 6 -3 8 3 5 5 -3 10 1 10 9 0 10 -4 11 -11 4 -11 -11
-16 -31 -18 -77 -2 -35 -7 -40 -26 -21 -8 8 -10 5 -7 -15 3 -14 1 -28 -3 -31
-5 -3 -8 -21 -7 -40 1 -19 -1 -35 -4 -34 -22 2 -30 -5 -31 -29 0 -16 -2 -51
-3 -80 -1 -33 -5 -49 -11 -43 -6 6 -13 10 -17 10 -10 0 -9 -459 1 -465 5 -3 7
6 4 20 -3 17 0 23 8 20 8 -3 14 -28 15 -62 2 -31 9 -63 15 -71 10 -13 10 -14
1 -8 -15 8 -15 0 -4 -29 5 -12 4 -26 -3 -35 -9 -13 -9 -13 6 -2 10 8 14 20 11
29 -4 10 -2 14 4 10 5 -3 11 -19 11 -34 1 -15 4 -37 6 -48 3 -11 5 -23 5 -27
1 -5 8 -8 16 -8 15 0 19 -20 15 -67 -1 -17 3 -21 18 -18 10 2 19 -2 20 -8 5
-37 10 -72 11 -76 1 -2 7 2 15 8 12 10 14 8 12 -14 -2 -14 1 -28 6 -31 5 -3 7
-12 4 -19 -2 -7 2 -16 10 -19 10 -4 13 -2 8 7 -5 8 -4 9 4 2 5 -5 12 -19 14
-30 2 -11 9 -20 16 -20 6 0 12 -4 13 -10 0 -5 8 -19 17 -29 9 -11 11 -16 5
-12 -8 4 -13 1 -13 -9 0 -9 4 -14 9 -10 12 7 43 -24 36 -35 -3 -5 -1 -11 5
-15 5 -3 10 0 10 7 1 23 21 -20 25 -53 5 -38 10 -45 19 -24 4 11 2 14 -7 9 -8
-5 -7 -2 2 9 17 21 17 21 18 -5 2 -56 7 -94 15 -111 6 -11 5 -17 -2 -17 -6 0
-8 -5 -5 -10 5 -8 11 -8 19 0 10 8 13 4 13 -17 1 -70 7 -94 25 -104 10 -6 18
-15 16 -22 -1 -7 1 -25 5 -40 6 -22 11 -26 21 -18 9 8 13 7 14 -2 6 -73 10
-82 26 -79 13 2 17 -2 14 -15 -2 -10 3 -24 12 -31 13 -11 13 -12 0 -6 -12 6
-13 5 -2 -7 11 -12 14 -12 23 1 8 12 9 11 5 -6 -6 -21 25 -69 38 -57 3 3 6 1
6 -5 0 -24 2 -27 21 -34 12 -5 19 -15 17 -25 -2 -13 3 -18 19 -17 16 1 20 -4
18 -17 -4 -18 5 -23 33 -20 14 2 12 -20 -3 -31 -6 -5 -3 -8 8 -9 31 -3 35 -4
44 -13 5 -5 3 -6 -4 -2 -18 10 -16 -2 3 -21 8 -9 13 -22 10 -30 -4 -8 -1 -11
5 -8 6 4 8 13 5 21 -3 8 0 11 9 8 8 -3 11 -12 8 -20 -3 -8 0 -14 6 -14 7 0 11
-6 9 -14 -2 -8 0 -14 3 -13 12 4 40 -26 35 -38 -2 -6 2 -12 9 -12 10 0 11 5 5
17 -6 12 -5 17 5 17 7 0 11 -6 8 -13 -2 -6 1 -15 6 -19 6 -3 9 -10 6 -15 -5
-9 46 -41 62 -40 5 1 10 -7 13 -17 3 -10 14 -18 25 -18 13 0 20 -6 19 -18 -1
-12 5 -17 22 -17 14 0 24 -6 24 -14 0 -20 17 -29 50 -28 22 0 27 -3 23 -17 -2
-10 1 -18 9 -19 55 -4 73 -11 70 -26 -4 -22 15 -21 21 2 4 16 5 16 6 0 1 -17
6 -20 40 -22 8 -1 16 -7 19 -15 3 -9 0 -11 -8 -6 -8 5 -11 4 -7 -1 3 -6 23
-11 44 -13 21 -2 48 -4 60 -5 12 -1 26 -6 30 -10 4 -5 3 -6 -3 -3 -6 3 -11 1
-11 -6 0 -7 18 -13 41 -15 65 -4 81 -9 79 -21 -2 -6 0 -11 5 -12 4 0 16 -3 27
-5 11 -3 26 -6 33 -6 8 -1 18 -12 23 -25 5 -13 14 -21 20 -18 6 4 13 -2 16
-14 3 -11 14 -23 24 -26 11 -4 17 -10 14 -15 -6 -10 29 -32 37 -24 3 2 11 -3
19 -13 9 -11 10 -14 2 -9 -7 4 -13 3 -13 -3 0 -5 10 -11 23 -13 13 -2 22 -10
21 -19 -1 -9 4 -16 11 -16 7 0 11 6 8 13 -2 6 1 15 8 20 7 4 10 3 6 -4 -9 -14
3 -43 15 -36 5 3 18 -3 29 -15 11 -12 29 -21 40 -21 11 0 17 -4 14 -10 -4 -6
1 -7 11 -3 13 5 16 2 12 -8 -4 -9 1 -15 11 -16 9 -1 30 -4 46 -6 17 -3 32 -6
35 -6 3 -1 -2 -6 -10 -11 -10 -7 -11 -10 -2 -11 6 -1 17 -3 22 -4 6 -1 22 -3
36 -4 14 0 22 -5 19 -11 -4 -7 2 -7 19 0 17 6 27 6 32 -2 4 -7 3 -8 -4 -4 -7
4 -12 2 -12 -4 0 -6 -6 -8 -12 -4 -7 4 -10 3 -5 -1 8 -10 22 -12 118 -17 50
-2 65 -6 61 -16 -3 -8 -7 -10 -11 -4 -4 6 -11 5 -18 -3 -19 -20 482 -20 511 1
11 8 15 14 9 14 -7 0 -14 -4 -18 -9 -5 -10 -51 -9 -60 1 -6 5 -7 5 92 14 40 4
70 10 68 15 -3 4 0 11 6 15 7 4 9 3 6 -3 -4 -6 -1 -13 7 -16 8 -3 17 1 20 9 4
10 2 13 -7 8 -6 -4 -9 -3 -4 1 7 8 50 15 104 18 12 1 21 3 21 6 -1 17 3 31 10
30 33 -5 51 3 47 21 -2 12 0 18 6 15 5 -4 7 -10 4 -15 -3 -5 -1 -11 5 -15 5
-3 10 3 10 14 0 13 5 18 13 15 7 -2 26 5 42 18 30 23 44 29 82 31 12 0 20 4
18 8 -3 3 2 15 10 25 11 15 15 16 15 4 0 -12 4 -11 15 4 8 10 12 23 9 27 -2 4
4 6 15 4 17 -3 36 18 33 36 0 3 4 6 11 7 36 3 52 11 51 25 -1 10 6 14 22 12
22 -2 28 7 26 36 -1 5 3 6 101 10 32 2 61 7 64 12 4 6 0 7 -8 3 -8 -4 -5 0 5
8 11 9 35 17 53 17 54 2 58 4 57 21 -1 10 7 16 25 16 41 0 66 9 64 21 -2 6 0
11 5 12 37 4 59 13 73 31 9 11 21 18 27 14 6 -3 13 3 17 14 3 11 11 20 17 20
7 0 7 -4 -1 -13 -8 -10 -7 -14 4 -14 7 0 14 3 13 6 -2 21 5 30 25 33 14 2 21
9 19 20 -2 11 4 17 15 17 34 -1 57 8 61 22 3 11 2 12 -6 1 -8 -11 -10 -11 -14
0 -4 9 3 15 20 16 29 2 54 20 46 33 -5 8 17 13 53 12 6 0 9 6 6 13 -3 8 -10
11 -16 7 -6 -3 -7 -1 -3 6 4 6 11 9 16 6 4 -3 18 7 30 22 13 18 17 20 11 7 -7
-15 -7 -21 3 -21 7 0 13 5 14 11 2 26 9 46 17 53 4 4 5 3 2 -3 -4 -7 0 -14 8
-17 9 -4 12 -1 9 8 -6 14 29 39 39 28 4 -3 5 4 2 16 -4 20 9 27 38 22 5 -1 6
3 2 9 -3 6 -11 8 -16 5 -5 -4 -9 -1 -9 4 0 6 5 11 11 11 6 0 17 6 24 14 11 10
11 16 2 26 -10 10 -7 10 11 1 12 -7 22 -8 21 -4 -4 21 2 53 9 52 28 -5 40 3
35 21 -5 18 5 25 30 21 5 -1 6 3 3 8 -4 5 -2 12 4 16 6 3 8 17 6 30 -3 15 1
26 10 29 10 4 13 1 9 -7 -4 -6 0 -4 8 5 7 10 13 31 12 47 -1 18 4 32 12 35 8
3 11 1 8 -4 -3 -5 0 -7 8 -4 9 3 13 13 10 24 -8 30 6 73 21 67 7 -3 13 1 13 9
0 7 -5 10 -11 7 -7 -5 -7 -2 0 8 6 8 14 31 18 52 4 21 11 35 17 32 5 -4 10 0
11 7 0 7 2 18 2 23 1 6 4 15 7 20 3 6 5 24 4 42 -1 18 3 29 7 27 16 -10 39 17
28 31 -13 15 -3 24 23 20 9 -2 17 3 17 11 0 8 -6 14 -12 15 -7 0 -2 4 10 10
13 5 29 6 35 2 6 -4 8 0 4 10 -4 12 6 29 31 54 20 20 31 34 25 30 -9 -6 -11
-3 -7 7 3 9 10 14 14 11 11 -7 31 20 28 36 -2 9 4 13 15 11 16 -3 23 24 18 66
-2 10 4 12 18 7 14 -4 21 -2 22 7 1 7 2 20 3 28 0 8 7 15 15 15 8 0 16 7 18
15 4 13 3 13 -6 0 -6 -8 -11 -10 -11 -4 0 5 4 14 10 20 5 5 11 24 12 41 3 32
20 46 26 21 2 -9 0 -8 -7 2 -6 8 -11 10 -11 4 0 -6 6 -16 13 -22 12 -10 13 -4
20 111 1 19 17 24 17 5 0 -16 13 -1 17 20 1 9 3 38 4 65 1 26 6 47 11 47 5 0
6 -6 2 -12 -6 -10 -3 -9 8 0 15 12 17 43 15 265 -2 226 -4 252 -18 249 -13 -2
-17 8 -18 45 -1 27 -3 54 -3 61 -2 15 -18 16 -18 0 0 -6 -3 -8 -6 -5 -4 4 -1
14 7 24 9 11 10 14 2 9 -7 -4 -14 -4 -14 1 -1 4 -3 19 -5 33 -1 14 -5 36 -8
50 -2 14 -5 28 -5 33 -1 4 -6 7 -12 7 -8 0 -8 -4 0 -14 9 -11 9 -16 -1 -22 -7
-4 -10 -4 -6 1 4 4 3 14 -3 22 -6 7 -9 22 -6 33 3 11 1 20 -4 20 -5 0 -8 3 -7
8 4 15 -14 52 -23 47 -5 -4 -9 8 -9 24 0 17 -3 30 -7 30 -22 -4 -30 3 -29 24
1 13 -4 21 -12 19 -9 -2 -11 2 -6 10 17 27 12 42 -6 18 -11 -15 -18 -19 -18
-10 3 54 -2 68 -24 64 -13 -2 -17 -2 -11 2 10 4 10 10 -1 26 -8 11 -12 28 -8
37 5 14 4 14 -13 1 -11 -9 -16 -10 -11 -2 4 6 2 12 -3 12 -6 0 -11 8 -11 19 0
10 -9 21 -20 24 -17 4 -26 29 -21 60 0 4 -4 7 -10 7 -6 0 -9 -7 -5 -15 3 -8 0
-15 -7 -15 -7 0 -13 12 -13 28 -1 15 -3 50 -5 79 -3 44 -6 50 -21 42 -14 -7
-16 -5 -13 11 2 11 7 25 11 32 4 7 3 8 -4 4 -8 -5 -12 2 -13 21 -2 53 -4 58
-21 57 -13 -1 -17 7 -16 38 0 26 -6 46 -17 56 -14 13 -16 13 -9 2 12 -21 14
-41 3 -34 -5 3 -7 9 -4 14 3 4 -1 10 -7 13 -10 3 -10 8 1 21 12 15 12 17 0 14
-9 -2 -13 4 -11 20 2 12 0 22 -5 21 -20 -3 -29 2 -31 21 -1 11 -3 29 -4 39 -1
11 -5 18 -9 15 -11 -6 -27 20 -32 51 -2 16 -10 31 -18 33 -8 2 -10 0 -4 -5 15
-12 16 -30 2 -30 -8 0 -12 13 -12 31 2 38 -11 57 -32 49 -11 -4 -14 -2 -9 5
11 18 -3 54 -17 45 -7 -4 -7 0 1 10 12 14 11 16 -7 12 -17 -3 -21 1 -21 21 0
13 -5 24 -11 24 -5 0 -7 4 -4 10 3 6 -1 7 -9 4 -9 -3 -16 -1 -16 5 0 6 5 11
12 11 6 0 4 6 -7 13 -10 8 -15 18 -12 24 3 5 0 10 -8 10 -10 0 -11 -5 -5 -17
6 -11 5 -17 -3 -17 -12 0 -16 14 -17 61 -1 18 -1 18 -15 0 -7 -11 -17 -16 -21
-11 -4 4 -2 7 4 7 6 0 5 11 -5 31 -9 17 -21 28 -28 25 -14 -5 -29 20 -20 34 3
5 -3 7 -12 6 -10 -2 -28 1 -40 7 -19 8 -21 13 -10 25 8 11 8 14 0 9 -6 -4 -14
-3 -18 2 -3 6 -12 8 -19 5 -8 -3 -16 4 -19 15 -3 14 -13 21 -30 21 -14 0 -29
4 -32 10 -3 6 1 7 9 4 9 -3 16 -2 16 4 0 10 -56 28 -74 23 -5 -1 -6 7 -3 18 4
15 0 18 -19 16 -13 -1 -24 1 -24 6 0 4 -9 6 -21 4 -16 -3 -20 0 -16 14 3 12
-1 18 -12 18 -38 0 -50 4 -66 19 -9 9 -33 18 -53 21 -63 7 -82 13 -82 27 0 13
-3 14 -77 17 -27 1 -42 4 -35 6 10 4 10 8 1 19 -6 8 -15 11 -20 9 -11 -7 -30
30 -21 40 4 5 2 5 -5 1 -7 -4 -9 -14 -6 -23 4 -11 2 -14 -8 -11 -8 3 -13 12
-11 22 2 9 -2 16 -8 16 -6 0 -9 4 -5 10 7 11 -45 39 -63 33 -7 -3 -10 1 -6 11
4 11 -2 19 -21 26 -18 7 -25 15 -21 26 3 8 2 13 -2 11 -12 -8 -54 12 -47 22 3
6 -11 13 -30 17 -24 4 -35 11 -31 20 3 9 0 11 -11 7 -11 -4 -14 -2 -9 5 6 10
-25 18 -56 13 -4 0 -10 8 -13 19 -3 10 -14 19 -23 19 -26 0 -51 6 -59 16 -4 4
-3 5 4 1 6 -3 14 -3 17 2 5 9 2 10 -45 15 -14 2 -29 6 -35 9 -5 3 -21 4 -36 3
-18 -1 -25 2 -21 12 3 7 9 13 15 13 5 0 6 -5 2 -12 -5 -7 -3 -8 5 -4 19 12 3
21 -37 22 -120 5 -149 9 -144 22 2 8 8 10 11 5 8 -11 51 -15 51 -5 0 13 -19
14 -288 17 -144 1 -249 -2 -244 -7z m457 -8 c-3 -5 -12 -10 -18 -10 -7 0 -6 4
3 10 19 12 23 12 15 0z m-508 -113 c0 -15 -34 -20 -42 -6 -3 5 0 6 8 3 8 -3
18 -1 22 5 8 14 12 14 12 -2z m425 -8 c-2 -12 8 -16 45 -16 57 -1 76 -4 85
-18 4 -5 12 -11 18 -11 5 -1 11 -3 13 -4 2 -3 30 -8 70 -13 12 -2 21 -8 20
-14 -3 -12 73 -34 92 -27 7 3 16 1 19 -4 3 -5 -1 -9 -9 -8 -17 1 -20 -17 -3
-20 47 -8 71 -14 76 -19 3 -3 0 -5 -6 -5 -7 0 -12 -4 -12 -10 0 -5 11 -10 25
-10 16 0 25 -6 25 -15 0 -8 0 -18 0 -22 0 -5 -59 -8 -130 -9 -72 0 -135 -5
-140 -10 -7 -7 -1 -10 14 -10 14 0 22 4 20 8 -8 13 3 9 14 -5 8 -10 1 -13 -34
-13 -29 0 -44 5 -44 13 0 7 -4 13 -10 13 -5 0 -7 -6 -5 -13 4 -9 -9 -13 -42
-15 -123 -7 -159 -10 -177 -18 -15 -6 -17 -4 -11 7 5 8 -3 4 -17 -8 -14 -13
-37 -23 -54 -23 -17 0 -36 -6 -43 -12 -11 -11 -13 -10 -7 0 5 8 0 11 -15 9
-13 -2 -25 -10 -27 -18 -3 -11 -2 -12 6 -1 8 11 10 11 15 0 4 -11 -5 -14 -34
-14 -36 1 -55 16 -30 24 6 2 11 -1 11 -7 0 -6 4 -11 8 -11 5 0 9 6 9 13 0 8
-16 13 -46 14 -109 3 -131 6 -143 22 -12 14 -11 15 5 2 14 -11 20 -12 30 -2 9
10 8 11 -7 5 -12 -5 -17 -4 -13 3 4 6 -7 10 -26 10 -109 0 -157 4 -157 14 0 5
5 7 10 4 6 -3 10 -2 10 4 0 5 -8 10 -17 10 -10 0 -27 1 -38 4 -11 2 -25 -3
-32 -12 -10 -13 -14 -14 -25 -3 -11 11 -10 12 6 6 13 -5 17 -4 13 3 -8 12 -56
12 -76 -1 -9 -6 -12 -5 -8 1 5 7 -12 10 -48 8 -38 -2 -53 1 -48 9 4 6 -1 5
-10 -3 -12 -9 -17 -10 -17 -2 0 7 -5 9 -11 5 -8 -4 -7 0 1 15 6 12 15 19 20
16 5 -3 11 -1 15 5 3 5 18 8 33 5 15 -3 21 -2 14 1 -6 3 -10 10 -7 15 4 5 -2
6 -12 3 -17 -5 -17 -5 0 6 10 6 24 9 32 7 7 -3 21 1 32 9 10 9 11 12 3 8 -12
-6 -13 -4 -2 7 7 7 27 15 45 16 57 5 72 10 71 27 -2 15 17 19 98 19 13 0 15 4
9 16 -8 14 0 16 59 19 84 3 111 8 124 23 8 8 5 8 -11 0 -14 -7 -23 -8 -23 -2
0 15 24 17 225 17 168 -1 190 -3 187 -17z m47 -2 c0 -8 -2 -8 -6 1 -4 10 -8
10 -21 0 -15 -12 -16 -11 -3 4 14 19 32 15 30 -5z m121 -27 c12 -7 10 -9 -8
-7 -12 0 -22 5 -22 9 0 11 12 10 30 -2z m-745 -10 c3 -6 -1 -7 -9 -4 -18 7
-21 14 -7 14 6 0 13 -4 16 -10z m-112 -35 c-3 -9 -8 -14 -10 -11 -3 3 -2 9 2
15 9 16 15 13 8 -4z m1174 -149 c-3 -8 0 -19 6 -25 9 -9 8 -11 -4 -6 -9 3 -15
19 -16 42 -1 30 1 34 9 19 5 -9 7 -23 5 -30z m273 19 c0 -12 -19 -12 -23 0 -4
9 -1 12 9 8 7 -3 14 -7 14 -8z m-1397 -38 c7 3 9 2 4 -2 -4 -5 -17 -10 -28
-12 -16 -2 -18 -1 -7 11 7 8 15 10 16 5 2 -5 9 -6 15 -2z m911 -2 c3 -8 1 -15
-4 -15 -6 0 -10 7 -10 15 0 8 2 15 4 15 2 0 6 -7 10 -15z m56 10 c0 -2 -10 -9
-22 -15 -22 -11 -22 -10 -4 4 21 17 26 19 26 11z m81 -38 c-10 -9 -11 -8 -5 6
3 10 9 15 12 12 3 -3 0 -11 -7 -18z m-456 -7 c-3 -5 -1 -11 4 -11 6 -1 15 -2
20 -3 5 0 13 -5 18 -10 5 -5 3 -6 -4 -2 -8 4 -13 1 -13 -8 0 -9 -4 -16 -10
-16 -5 0 -6 8 -3 17 5 12 2 15 -9 10 -11 -4 -15 -1 -13 11 5 23 4 22 11 22 3
0 2 -4 -1 -10z m-25 -16 c0 -2 -9 -4 -21 -4 -11 0 -18 4 -14 10 5 8 35 3 35
-6z m668 -9 c17 -4 22 -11 18 -22 -4 -11 -2 -14 9 -10 8 4 17 2 20 -3 3 -5 12
-7 19 -4 8 3 17 1 20 -4 3 -5 0 -9 -7 -8 -6 0 -13 -3 -14 -9 -2 -5 0 -10 5
-10 4 -1 17 -6 28 -13 12 -6 23 -9 26 -7 2 3 4 -10 4 -29 -1 -24 -5 -33 -16
-31 -8 1 -18 -3 -23 -9 -4 -6 -6 0 -5 14 l3 25 -142 2 c-78 0 -146 4 -152 7
-5 4 -14 -2 -20 -11 -6 -10 -11 -12 -11 -5 0 17 -20 15 -42 -5 -10 -9 -18 -11
-18 -5 0 6 6 13 13 15 6 3 0 6 -15 7 -16 2 -34 3 -40 4 -7 1 -18 -7 -25 -19
-10 -16 -12 -17 -13 -4 0 13 -9 16 -45 14 -32 -3 -44 0 -39 8 3 7 -2 3 -10 -7
-9 -11 -13 -22 -10 -25 2 -3 94 -7 202 -8 182 -3 341 -8 351 -12 3 0 -1 -7 -7
-13 -10 -10 -15 -10 -21 0 -7 11 -9 11 -14 0 -6 -18 32 -21 52 -5 12 9 13 9 7
0 -6 -12 28 -17 82 -12 4 0 10 -10 14 -23 l6 -23 1 23 c1 13 5 20 11 17 6 -4
8 -11 4 -16 -3 -6 3 -13 15 -16 19 -5 25 -15 22 -35 0 -5 3 -8 9 -8 6 0 9 -3
9 -7 -3 -20 2 -33 12 -33 8 0 8 5 -1 15 -7 9 -8 15 -2 15 12 0 22 -24 22 -56
0 -17 4 -22 15 -18 17 7 39 -37 23 -47 -5 -3 -1 -12 8 -20 10 -8 15 -9 11 -2
-4 6 -3 15 3 18 6 4 10 3 8 -2 -1 -4 4 -26 10 -47 6 -22 9 -43 6 -48 -3 -5 -2
-8 3 -7 23 4 31 -4 37 -37 4 -19 13 -37 21 -40 7 -3 14 -13 13 -22 0 -23 10
-63 18 -71 3 -3 4 1 3 9 -2 8 0 15 5 15 6 0 11 -13 13 -29 2 -16 11 -35 21
-42 14 -12 14 -13 1 -8 -13 4 -15 0 -12 -20 3 -14 10 -26 15 -26 6 0 7 7 4 16
-3 8 -2 12 4 9 5 -3 8 -21 6 -40 -1 -19 1 -35 5 -35 4 0 10 -7 13 -16 4 -9 2
-13 -5 -8 -7 4 -10 1 -7 -7 3 -8 11 -14 18 -14 14 0 20 -33 23 -131 1 -33 6
-51 14 -51 10 0 10 3 0 15 -10 13 -9 14 3 10 9 -3 16 -19 17 -44 1 -21 4 -74
6 -116 2 -43 2 -80 0 -82 -11 -10 -43 8 -43 25 0 11 -7 19 -15 19 -8 0 -15 6
-15 14 0 8 -8 21 -19 28 -10 7 -19 15 -19 18 -2 22 -15 59 -21 58 -21 -2 -31
4 -31 22 0 18 -4 21 -27 19 -5 0 -11 10 -14 23 -3 15 -11 22 -23 20 -11 -2
-15 1 -12 7 4 6 1 21 -6 33 -7 13 -11 27 -10 31 1 5 -2 6 -8 2 -8 -5 -7 -11 1
-21 8 -10 8 -14 0 -14 -6 0 -16 11 -21 25 -6 16 -15 23 -24 19 -11 -4 -14 0
-11 15 3 17 -1 21 -22 21 -20 0 -24 4 -20 20 4 16 0 20 -23 20 -23 0 -27 4
-23 20 4 15 0 20 -16 20 -11 0 -21 4 -21 10 0 5 -8 7 -17 3 -15 -5 -14 -3 2
10 l20 16 -20 0 c-29 -1 -53 6 -62 16 -4 4 -2 5 5 1 6 -4 12 -2 12 3 0 6 -4
11 -10 11 -5 0 -12 11 -16 25 -3 14 -10 25 -15 25 -6 0 -5 -9 1 -20 6 -11 7
-20 2 -20 -11 0 -25 38 -22 59 1 9 -4 12 -16 7 -10 -4 -15 -4 -12 0 4 3 1 13
-7 20 -8 8 -12 21 -9 29 4 10 0 12 -17 8 -17 -5 -21 -3 -16 9 3 10 -3 19 -19
27 -14 6 -22 15 -19 21 7 11 -29 32 -40 22 -4 -4 -5 3 -2 16 4 18 1 22 -19 22
-13 0 -24 5 -24 11 0 5 4 7 10 4 6 -3 7 1 4 9 -5 14 -24 21 -46 17 -5 0 -8 7
-8 17 0 26 -11 34 -28 20 -11 -10 -13 -8 -10 10 1 11 -1 22 -7 23 -22 3 -45
21 -40 30 4 5 -8 14 -25 21 -23 8 -28 13 -18 19 10 7 9 9 -4 9 -9 0 -19 -6
-22 -12 -3 -7 -4 -4 -3 7 2 16 -3 20 -23 18 -14 -1 -19 0 -12 3 13 6 17 25 5
23 -22 -3 -54 15 -49 27 5 13 -5 18 -31 15 -12 -2 -18 12 -13 34 1 6 -1 7 -5
3 -4 -4 -29 1 -56 11 -26 10 -51 16 -55 12 -4 -3 -4 -1 0 6 4 7 14 9 23 6 10
-4 14 -2 10 4 -8 13 17 25 37 17 7 -3 15 3 18 13 4 17 -4 18 -94 20 -72 1
-102 6 -113 17 -11 10 -12 15 -3 18 7 3 2 7 -10 10 -15 4 -20 3 -15 -5 5 -9 3
-9 -8 -1 -8 6 -22 10 -31 9 -10 -2 -16 2 -15 8 4 20 20 26 40 15 14 -7 17 -7
13 0 -4 7 14 11 51 12 97 2 112 4 107 12 -3 5 -11 5 -17 2 -8 -5 -9 -3 -2 4
13 14 79 26 71 13 -4 -5 -2 -13 4 -16 6 -4 9 -1 8 6 -2 8 18 13 61 16 36 2 66
4 67 6 5 4 360 -3 382 -8z m-1525 -92 c-6 -16 -5 -16 11 -4 10 8 33 16 51 17
27 1 32 -2 28 -15 -4 -14 -3 -14 9 -1 8 9 29 14 56 14 62 -3 64 -3 56 -15 -5
-8 -9 -8 -14 1 -5 8 -9 7 -14 -5 -3 -9 -10 -13 -16 -10 -5 3 -10 2 -10 -4 0
-5 7 -12 15 -14 11 -3 10 -4 -2 -3 -10 1 -17 9 -17 19 1 12 -3 14 -15 8 -19
-9 -136 -9 -146 1 -4 4 -4 11 0 17 10 17 15 13 8 -6z m1895 -3 c-5 -22 -34
-24 -34 -2 0 10 8 18 18 18 11 0 17 -6 16 -16z m-1944 2 c3 -5 -1 -9 -9 -9 -8
0 -12 4 -9 9 3 4 7 8 9 8 2 0 6 -4 9 -8z m288 -4 c-18 -18 -14 -32 5 -17 11
10 14 10 9 2 -4 -7 -3 -13 3 -13 5 0 11 6 14 13 3 9 7 9 19 0 8 -7 25 -11 37
-8 18 3 20 1 12 -9 -20 -24 10 -31 116 -31 91 1 101 0 93 -15 -6 -12 -4 -16
10 -17 14 -1 17 3 13 15 -5 15 -4 15 8 0 8 -10 31 -20 51 -22 21 -2 42 -7 47
-10 5 -3 12 -1 14 4 3 6 4 5 3 -2 -2 -7 -12 -11 -22 -10 -10 2 -16 1 -12 -3 3
-3 12 -7 20 -9 7 -1 19 -5 26 -9 7 -5 12 -3 12 3 0 7 6 8 19 0 11 -5 26 -7 35
-4 11 4 13 0 9 -15 -5 -21 2 -24 69 -24 10 0 14 -5 11 -13 -3 -8 5 -18 20 -23
14 -5 27 -13 29 -18 3 -4 4 -3 2 3 -1 6 5 11 13 11 9 0 13 -7 10 -19 -4 -15 1
-18 28 -18 18 0 38 -7 45 -15 9 -10 9 -15 1 -15 -6 0 -11 5 -11 12 0 6 -3 8
-7 4 -13 -12 25 -34 51 -29 13 3 27 -1 31 -8 6 -8 4 -10 -5 -4 -8 5 -11 3 -8
-5 2 -7 11 -14 20 -16 29 -4 58 -15 57 -22 -4 -22 4 -29 25 -25 21 4 24 2 19
-15 -4 -16 1 -21 19 -24 15 -2 23 -10 23 -23 0 -19 -6 -20 -80 -17 -102 4
-121 7 -118 21 2 6 0 11 -5 12 -4 0 -20 2 -37 5 -16 2 -41 5 -54 6 -13 2 -26
10 -28 18 -4 13 -3 13 6 0 7 -10 11 -11 11 -3 0 13 -34 35 -42 27 -3 -2 -11 3
-19 13 -12 14 -12 16 0 8 10 -6 12 -4 6 4 -4 7 -16 11 -26 8 -13 -3 -19 1 -21
17 -2 11 -10 21 -18 22 -8 1 -25 2 -38 2 -13 1 -20 7 -17 12 4 6 12 7 18 4 7
-4 8 -3 4 2 -5 5 -13 10 -18 10 -5 1 -12 3 -16 4 -5 2 -15 4 -23 4 -8 1 -14 8
-12 14 2 10 -3 10 -16 3 -14 -7 -19 -6 -19 4 0 8 4 12 8 9 4 -2 10 -1 13 4 4
7 -27 13 -86 15 -9 1 -14 5 -11 10 3 5 11 6 17 4 7 -3 13 0 13 7 0 7 -7 12
-16 12 -59 1 -70 4 -66 22 3 16 -3 19 -36 18 -29 -1 -41 3 -44 15 -3 10 -13
20 -22 24 -14 5 -14 3 2 -15 10 -11 15 -20 11 -20 -10 0 -36 27 -36 37 0 5
-16 8 -35 8 -19 -1 -32 2 -29 7 13 21 -17 35 -63 30 -37 -4 -49 -1 -60 13 -10
15 -13 16 -13 4 0 -9 -7 -16 -15 -16 -10 0 -12 4 -6 10 5 5 7 16 4 25 -4 10
-2 13 5 8 6 -3 17 0 24 8 7 9 17 15 23 16 5 0 4 -5 -3 -12z m1754 -22 c11 0
21 -5 21 -11 0 -7 -6 -12 -13 -12 -7 0 -10 5 -7 10 3 6 1 7 -6 3 -17 -11 -6
-21 26 -24 61 -5 88 -16 78 -33 -4 -5 0 -10 7 -11 7 0 18 -2 23 -3 6 -2 15 -3
20 -4 6 -1 4 -5 -4 -10 -11 -7 -9 -11 9 -21 18 -10 21 -10 14 2 -6 10 -5 11 8
1 8 -7 19 -9 23 -5 5 4 4 0 -1 -8 -13 -24 -13 -34 4 -50 14 -13 15 -12 10 1
-5 12 0 16 22 15 28 -1 33 -17 12 -38 -9 -9 -12 -9 -12 0 0 6 -6 9 -14 6 -7
-3 -22 3 -31 13 -10 10 -22 19 -27 19 -4 1 -11 3 -15 4 -5 1 -15 2 -25 1 -9
-1 -20 3 -24 10 -4 7 -3 9 3 6 5 -3 10 0 10 7 0 7 -6 13 -14 13 -7 0 -13 -5
-13 -11 0 -7 -3 -7 -8 1 -4 7 -26 13 -49 14 -23 2 -39 7 -36 12 9 15 -20 27
-36 14 -12 -9 -13 -9 -7 1 7 11 -5 17 -27 13 -5 -1 -6 3 -2 9 3 6 11 8 16 5 5
-4 9 -2 9 3 0 5 -11 15 -25 22 -19 10 -22 17 -14 31 7 15 16 17 42 12 17 -4
41 -7 53 -7z m-799 -10 c0 -8 -6 -12 -15 -9 -11 5 -11 7 0 14 7 5 13 9 14 9 0
0 1 -6 1 -14z m-182 -5 c2 -5 -7 -7 -20 -5 -14 1 -27 -2 -31 -7 -3 -5 -13 -9
-22 -9 -12 0 -9 4 8 13 30 15 58 19 65 8z m30 -91 c3 -5 2 -10 -4 -10 -5 0
-13 5 -16 10 -3 6 -2 10 4 10 5 0 13 -4 16 -10z m-1310 -30 c-3 -5 -1 -12 5
-15 6 -4 10 -3 9 2 -1 4 -1 13 0 18 1 12 210 13 229 2 7 -5 12 -3 12 3 0 15
17 3 30 -20 8 -15 6 -18 -8 -15 -9 2 -19 4 -22 4 -3 1 2 6 10 11 8 5 11 10 5
10 -5 0 -17 -5 -25 -10 -12 -8 -12 -10 -1 -10 9 0 10 -4 3 -12 -7 -9 -6 -17 3
-25 11 -10 15 -10 18 0 3 7 6 3 7 -8 1 -19 1 -19 11 -2 7 12 17 16 29 12 15
-5 18 -2 15 13 -3 17 4 18 78 16 112 -2 117 -3 117 -14 0 -5 -8 -7 -17 -3 -10
3 -15 3 -11 -1 6 -7 63 -16 123 -20 11 0 23 -8 26 -16 4 -10 22 -17 45 -18 21
-2 43 -10 51 -20 12 -16 12 -15 6 3 -6 17 -4 18 9 8 8 -7 19 -9 24 -5 4 4 3 0
-4 -9 -10 -14 -6 -16 31 -18 23 -2 47 -3 54 -4 7 0 10 -4 7 -9 -3 -5 -10 -6
-15 -3 -5 3 -6 -1 -3 -10 5 -13 9 -13 22 -3 12 10 14 10 8 1 -5 -9 0 -13 13
-14 12 -1 26 -3 31 -4 6 -1 15 -3 20 -4 6 0 10 -6 10 -12 0 -8 -4 -8 -13 0
-10 8 -14 7 -14 -3 0 -8 8 -13 18 -11 10 2 21 0 24 -5 3 -4 14 -6 25 -3 12 3
20 0 20 -6 0 -7 6 -9 13 -6 6 4 3 -1 -7 -9 -12 -10 -41 -16 -70 -17 -105 -2
-241 -7 -246 -9 -3 -1 -8 -2 -12 -1 -4 0 -5 -6 -2 -14 5 -12 -4 -15 -42 -16
-109 -3 -117 -4 -121 -19 -3 -9 -1 -11 4 -5 12 15 30 16 30 2 0 -7 -7 -13 -16
-14 -9 0 -37 -2 -63 -3 -31 -2 -45 -7 -41 -14 4 -6 -1 -5 -10 3 -15 12 -17 11
-17 -6 0 -18 -9 -19 -150 -19 -130 0 -150 3 -145 16 4 13 4 13 -7 0 -9 -10
-36 -16 -83 -18 -38 -2 -97 -5 -130 -8 -33 -2 -68 -4 -77 -4 -10 -1 -20 -5
-23 -9 -2 -5 7 -7 20 -5 14 1 27 -1 29 -5 3 -4 -16 -8 -42 -9 -114 -4 -152 -8
-164 -20 -9 -9 -9 -12 0 -12 7 0 12 6 13 13 0 8 2 8 6 -2 4 -10 7 -10 13 -1 5
9 9 8 13 -2 4 -11 -5 -14 -39 -14 -24 1 -44 -2 -44 -5 0 -3 -12 -4 -26 -1 -21
4 -25 2 -19 -9 8 -12 6 -12 -8 0 -9 7 -17 10 -17 5 0 -5 -5 -2 -10 6 -8 11 -9
8 -4 -12 5 -21 2 -26 -11 -24 -10 1 -22 11 -28 21 -8 15 -7 17 6 12 9 -3 16
-3 16 1 -3 21 2 32 13 26 7 -5 8 -3 4 5 -5 7 0 19 10 27 11 9 14 13 7 10 -6
-4 -14 -2 -18 4 -11 17 -26 0 -19 -22 4 -15 3 -18 -6 -13 -9 6 -11 4 -6 -4 8
-13 -23 -43 -36 -35 -4 3 -5 -2 -2 -10 4 -10 -3 -20 -20 -27 -14 -7 -26 -17
-26 -22 0 -5 7 -4 15 3 10 8 15 9 15 1 0 -11 -27 -20 -75 -24 -20 -2 -30 -8
-29 -18 1 -9 -4 -16 -10 -16 -52 -3 -73 -9 -73 -19 0 -10 6 -10 21 -3 20 10
21 10 2 -5 -11 -9 -30 -16 -42 -16 -13 0 -27 -8 -33 -17 -5 -10 -12 -15 -16
-11 -4 3 2 15 12 25 13 13 18 32 17 61 -1 43 4 50 22 32 7 -7 11 -6 11 4 0 8
-4 13 -8 10 -4 -2 -10 0 -14 6 -3 5 1 10 9 10 9 0 16 9 16 20 0 11 7 20 15 20
9 0 12 6 8 17 -4 11 -3 14 6 9 6 -4 11 -4 10 1 -4 24 2 53 10 48 15 -8 31 23
34 67 1 12 5 14 13 7 13 -10 29 15 25 40 -1 7 2 10 7 7 18 -11 40 5 35 25 -4
14 0 19 16 19 12 0 21 6 21 15 0 8 9 19 20 25 11 6 20 17 20 24 0 12 11 16 52
17 22 0 32 15 17 25 -8 5 -9 3 -4 -7 5 -8 4 -11 -1 -6 -19 18 -10 21 69 30 10
1 22 8 27 16 8 14 32 23 58 22 35 -2 42 -5 33 -14 -5 -5 -7 -16 -4 -24 4 -9 0
-14 -8 -13 -8 1 -21 2 -29 1 -13 -1 -13 -3 -1 -10 9 -6 22 -6 32 0 10 5 20 5
23 1 5 -8 -8 -12 -46 -13 -10 0 -21 -5 -24 -11 -4 -6 -2 -8 4 -5 6 5 8 0 5
-13 -3 -11 -10 -20 -15 -20 -5 0 -6 6 -2 13 4 6 -2 3 -15 -7 -16 -14 -18 -22
-9 -27 8 -5 4 -11 -15 -18 -32 -12 -35 -31 -8 -48 16 -10 19 -9 16 5 -1 9 -8
16 -15 14 -6 -1 -9 2 -5 8 3 6 11 8 16 5 5 -4 9 -1 9 5 0 6 7 10 16 8 10 -2
19 3 22 11 3 9 0 11 -9 6 -8 -5 -6 1 4 13 11 11 25 18 33 15 10 -4 12 0 8 11
-4 11 2 19 21 26 15 6 25 13 22 16 -3 3 -2 17 3 29 6 16 5 25 -2 27 -7 3 -4 7
6 11 10 4 15 3 11 -3 -3 -6 -1 -10 6 -10 8 0 9 -4 0 -13 -8 -10 -7 -14 2 -14
8 0 14 5 15 11 0 6 3 20 6 31 2 11 5 22 5 25 1 3 9 6 19 7 18 1 132 11 145 12
5 1 5 6 1 12 -4 8 -9 7 -15 -2 -5 -8 -9 -9 -9 -3 0 6 3 13 6 16 8 9 45 -3 39
-12z m-55 0 c0 -5 -2 -10 -4 -10 -3 0 -8 5 -11 10 -3 6 -1 10 4 10 6 0 11 -4
11 -10z m374 -2 c-3 -4 -9 -8 -15 -8 -5 0 -9 4 -9 8 0 5 7 9 15 9 8 0 12 -4 9
-9z m457 -11 c-10 -9 -11 -8 -5 6 3 10 9 15 12 12 3 -3 0 -11 -7 -18z m1704
13 c-3 -5 -12 -10 -18 -10 -7 0 -6 4 3 10 19 12 23 12 15 0z m182 -52 c-3 -8
-6 -5 -6 6 -1 11 2 17 5 13 3 -3 4 -12 1 -19z m-335 -11 c24 -1 34 -6 31 -14
-3 -7 -9 -10 -14 -7 -5 3 -9 1 -9 -4 0 -5 14 -9 30 -10 69 -5 78 -6 74 -14 -9
-13 10 -33 31 -33 14 0 19 -6 17 -19 -3 -18 -2 -18 14 -5 11 8 15 9 10 2 -4
-8 -1 -13 8 -14 37 -3 41 -5 40 -22 -1 -9 4 -18 12 -18 8 -1 20 -2 27 -3 6 -1
11 -9 9 -19 -3 -16 7 -21 35 -18 7 1 10 -7 8 -19 -3 -14 1 -20 16 -20 17 0 20
-4 18 -27 0 -5 10 -11 23 -14 15 -3 22 -12 20 -22 -3 -15 8 -22 31 -18 4 0 7
-8 7 -19 0 -18 10 -24 32 -21 4 0 6 -7 6 -17 -1 -9 2 -30 6 -45 5 -23 10 -26
20 -18 11 9 14 3 15 -31 3 -73 7 -92 19 -96 15 -5 15 3 2 28 -8 15 -7 18 3 14
21 -8 16 -67 -6 -70 -12 -2 -17 2 -13 12 3 7 -3 18 -14 24 -15 8 -20 6 -26
-13 -8 -26 -6 -33 8 -29 14 4 39 -18 32 -29 -3 -5 0 -9 5 -9 6 0 14 0 19 0 11
0 20 -44 17 -84 -1 -29 1 -34 14 -26 14 7 16 -1 16 -63 0 -40 -4 -78 -9 -86
-6 -10 -6 -12 3 -7 8 6 11 -3 9 -28 -1 -20 -7 -36 -13 -36 -6 0 -6 -3 1 -8 6
-4 11 -31 11 -60 -1 -28 -4 -47 -8 -41 -4 7 -6 22 -4 35 1 15 -2 21 -12 17
-10 -4 -11 -9 -3 -18 8 -10 8 -15 0 -20 -7 -5 -8 -11 -1 -19 12 -14 3 -30 -21
-39 -18 -6 -31 22 -28 65 1 19 -3 26 -14 24 -19 -3 -34 -16 -18 -16 7 0 12 -5
12 -11 0 -5 -4 -8 -9 -5 -5 3 -8 -6 -8 -20 0 -18 6 -28 18 -31 11 -3 19 -9 19
-14 0 -5 -8 -6 -17 -2 -17 5 -17 5 0 -8 11 -9 18 -30 20 -60 1 -33 6 -45 15
-42 9 4 10 9 1 19 -6 8 -9 14 -5 14 3 0 9 0 13 0 15 1 11 -34 -5 -47 -14 -11
-14 -12 -1 -8 9 4 16 0 16 -9 0 -8 -6 -12 -13 -9 -6 2 -15 -1 -20 -8 -4 -8 -3
-10 4 -5 7 4 12 2 12 -3 0 -6 -4 -11 -8 -11 -8 0 -12 -35 -12 -98 1 -29 -2
-33 -20 -27 -18 6 -20 2 -22 -47 0 -29 -1 -59 -1 -66 1 -10 -2 -10 -14 -1 -11
10 -11 14 -1 20 10 7 9 9 -4 9 -11 0 -16 -8 -16 -22 3 -54 -2 -79 -14 -72 -9
5 -9 2 1 -9 13 -17 13 -18 -11 -21 -7 0 -13 -9 -13 -18 0 -9 -3 -20 -7 -23 -4
-4 -4 -13 -1 -21 3 -8 2 -14 -3 -13 -22 4 -30 -3 -32 -26 -3 -48 -5 -54 -19
-59 -9 -4 -11 -1 -7 6 4 7 3 8 -4 4 -7 -4 -12 -19 -12 -34 0 -17 -8 -32 -22
-41 l-23 -14 19 22 c14 16 16 20 5 16 -13 -5 -16 11 -17 107 -3 183 -6 211
-22 216 -12 4 -13 2 -3 -9 8 -10 9 -19 1 -29 -8 -13 -9 -12 -5 2 3 9 3 19 -1
23 -7 7 -8 14 -13 118 -2 43 -7 61 -19 65 -14 6 -16 31 -16 205 1 127 5 196
11 193 6 -2 11 7 11 21 2 21 0 22 -10 8 -9 -13 -12 2 -14 77 -3 156 -7 206
-14 213 -3 4 -5 -5 -4 -19 2 -14 -1 -26 -5 -26 -5 0 -10 17 -10 38 -2 43 -6
123 -8 137 -1 6 -6 3 -11 -5 -5 -8 -10 -10 -10 -4 0 6 3 14 8 18 13 14 9 54
-5 49 -9 -4 -10 -9 -3 -18 7 -8 6 -12 -3 -12 -8 0 -13 16 -14 41 0 23 -3 50
-6 61 -6 23 17 73 30 65 4 -3 8 2 9 10 0 9 -1 10 -3 2 -3 -7 -9 -10 -14 -6 -5
3 -7 10 -4 15 3 5 -2 6 -11 2 -13 -5 -15 -3 -9 8 5 8 4 11 0 6 -14 -12 -14
-36 -2 -33 7 2 9 1 4 -1 -4 -3 -4 -10 0 -16 4 -7 -1 -6 -10 2 -9 7 -14 17 -11
22 3 5 1 9 -4 9 -5 0 -9 12 -8 27 1 21 -4 28 -19 28 -15 0 -20 7 -21 35 -2 49
-6 63 -28 83 -10 9 -16 17 -11 17 4 0 2 6 -4 14 -6 8 -10 19 -9 26 2 7 -3 15
-10 17 -8 3 -10 -2 -6 -14 5 -14 4 -15 -4 -4 -6 8 -9 22 -7 32 2 10 0 21 -6
24 -5 4 -9 12 -9 18 0 8 3 8 9 -1 4 -7 24 -14 43 -15z m-2695 -12 c0 -8 -4
-12 -9 -9 -5 3 -6 10 -3 15 9 13 12 11 12 -6z m2926 -5 c-6 -22 -18 -26 -29
-8 -4 6 -3 8 3 5 6 -4 13 0 17 8 8 22 15 18 9 -5z m148 -13 c-10 -9 -11 -8 -5
6 3 10 9 15 12 12 3 -3 0 -11 -7 -18z m-1631 -72 c0 -8 -4 -15 -10 -15 -5 0
-7 7 -4 15 4 8 8 15 10 15 2 0 4 -7 4 -15z m1270 -35 c6 -11 7 -20 2 -20 -6 0
-12 9 -15 20 -3 11 -3 20 -1 20 2 0 8 -9 14 -20z m-150 -35 c0 -8 -2 -15 -4
-15 -2 0 -6 7 -10 15 -3 8 -1 15 4 15 6 0 10 -7 10 -15z m-1475 -45 c-3 -5 -1
-10 6 -10 7 0 10 -3 6 -6 -9 -9 -28 6 -22 17 4 5 8 9 11 9 3 0 2 -4 -1 -10z
m800 0 c3 -5 1 -10 -4 -10 -6 0 -11 5 -11 10 0 6 2 10 4 10 3 0 8 -4 11 -10z
m42 -41 c1 -14 -8 -17 -57 -16 -47 1 -57 4 -48 14 5 7 14 11 18 8 5 -3 11 -1
15 4 10 17 71 8 72 -10z m678 12 c3 -5 2 -12 -3 -15 -5 -3 -9 1 -9 9 0 17 3
19 12 6z m-3038 -96 c0 -8 -4 -12 -8 -9 -4 2 -9 -2 -12 -8 -2 -7 -4 -1 -3 13
1 27 23 30 23 4z m3233 4 c0 -14 -17 -10 -23 5 -4 10 -1 13 9 9 7 -3 14 -9 14
-14z m-2555 -7 c-3 -3 -11 0 -18 7 -9 10 -8 11 6 5 10 -3 15 -9 12 -12z m-723
-30 c-8 -2 -9 -9 -2 -21 5 -10 8 -27 7 -39 -2 -27 -32 -12 -34 17 -1 12 3 19
8 15 6 -3 8 5 5 20 -4 20 -1 24 12 19 10 -4 12 -8 4 -11z m1005 -41 c0 -11 -8
-18 -17 -16 -8 1 -13 6 -10 11 3 5 8 8 13 7 4 -2 7 2 7 7 0 6 2 10 4 10 3 0 4
-8 3 -19z m-687 -6 c0 -8 -4 -15 -10 -15 -5 0 -7 7 -4 15 4 8 8 15 10 15 2 0
4 -7 4 -15z m74 -1 c3 -8 2 -12 -4 -9 -6 3 -10 10 -10 16 0 14 7 11 14 -7z
m566 6 c0 -5 -4 -10 -10 -10 -5 0 -10 5 -10 10 0 6 5 10 10 10 6 0 10 -4 10
-10z m-976 -42 c15 -18 16 -20 2 -15 -16 6 -19 -5 -19 -74 0 -9 -7 -16 -16
-15 -9 1 -16 -7 -17 -19 -3 -62 -4 -64 -24 -60 -15 3 -20 -2 -20 -19 0 -17 -6
-22 -22 -22 -16 1 -22 -4 -20 -15 1 -9 -5 -16 -13 -16 -8 0 -15 4 -15 8 0 4
-3 16 -6 26 -4 14 -4 15 4 4 5 -7 15 -10 21 -6 9 5 7 11 -6 21 -16 13 -16 14
0 8 12 -4 17 -1 18 12 1 11 2 32 3 48 0 17 8 31 16 33 9 3 11 1 5 -4 -15 -12
-16 -30 -1 -30 7 0 13 5 13 11 3 49 8 74 14 70 19 -11 35 9 34 41 -2 42 20 47
49 13z m802 -4 c-3 -8 -1 -14 4 -14 6 0 10 8 10 18 0 17 10 19 85 20 68 0 85
-2 85 -14 0 -16 -20 -26 -53 -28 -15 -1 -22 -8 -22 -21 0 -14 -6 -19 -18 -17
-12 2 -21 -4 -24 -17 -3 -14 -14 -21 -28 -21 -19 0 -22 -4 -17 -22 4 -17 2
-20 -12 -15 -10 4 -19 1 -22 -8 -4 -8 -10 -12 -15 -9 -5 3 -9 0 -9 -5 0 -6 6
-11 13 -12 6 -1 1 -4 -13 -8 -17 -5 -24 -13 -22 -26 3 -17 2 -17 -15 -5 -10 8
-15 11 -11 6 8 -10 -14 -36 -24 -29 -5 2 -8 0 -8 -6 0 -5 6 -12 13 -14 6 -3 2
-6 -10 -6 -16 -1 -23 -7 -23 -20 0 -10 -9 -21 -20 -24 -11 -3 -20 -12 -20 -21
0 -9 -8 -16 -20 -16 -12 0 -17 -5 -14 -13 3 -8 -3 -23 -13 -33 -10 -11 -14
-14 -9 -7 5 8 4 13 -3 13 -6 0 -12 -4 -12 -10 -1 -5 -3 -14 -4 -20 -1 -5 -3
-20 -4 -32 0 -12 -4 -18 -8 -15 -10 10 -33 -13 -33 -34 0 -13 -6 -17 -20 -14
-11 2 -18 1 -16 -4 7 -11 -11 -36 -26 -36 -7 0 -13 -7 -13 -15 0 -8 -10 -17
-23 -20 -13 -3 -23 -8 -23 -12 2 -24 -1 -28 -19 -28 -13 0 -20 -7 -20 -20 0
-11 -3 -19 -7 -19 -21 3 -33 -2 -33 -16 0 -8 -9 -19 -20 -25 -11 -6 -20 -18
-20 -27 0 -10 -6 -14 -20 -10 -16 4 -20 0 -20 -20 0 -17 -4 -23 -14 -20 -18 7
-36 -11 -29 -30 3 -8 0 -13 -8 -11 -7 2 -18 -7 -23 -19 -6 -13 -17 -22 -26
-20 -8 1 -15 -5 -15 -13 -1 -22 -15 -41 -25 -35 -5 3 -12 -6 -16 -20 -4 -16
-12 -24 -20 -21 -8 3 -11 0 -7 -9 3 -8 10 -12 16 -8 6 3 7 1 3 -5 -4 -7 -14
-12 -22 -12 -9 0 -14 -10 -14 -27 0 -22 -2 -25 -10 -13 -7 11 -10 11 -10 2 0
-7 -4 -11 -9 -8 -4 3 -8 -4 -7 -17 0 -12 -4 -22 -11 -22 -18 0 -26 -12 -12
-21 8 -5 10 -3 4 6 -5 9 -4 11 4 6 15 -10 4 -27 -13 -20 -8 3 -17 1 -21 -5 -3
-6 -2 -11 3 -11 6 0 8 -9 5 -20 -3 -11 -8 -18 -12 -16 -8 6 -38 -16 -39 -29 0
-5 -6 -11 -14 -13 -11 -3 -11 -2 0 6 8 5 14 13 14 17 0 4 -6 12 -14 17 -9 6
-6 7 9 3 20 -5 21 -3 16 22 -3 15 -6 55 -7 89 0 51 -4 63 -24 78 l-24 18 17
-32 c9 -18 13 -30 7 -27 -5 4 -9 -9 -9 -28 0 -19 4 -32 8 -30 4 3 9 -2 12 -10
4 -8 1 -12 -6 -9 -15 5 -17 -112 -2 -135 5 -10 4 -12 -3 -7 -8 5 -12 -4 -13
-28 -2 -58 -4 -61 -23 -58 -13 3 -17 -1 -13 -11 3 -9 -4 -23 -15 -34 -12 -10
-18 -12 -13 -4 4 8 9 25 11 38 2 18 -1 23 -12 19 -10 -4 -15 0 -13 12 5 51 -2
103 -13 96 -8 -5 -8 -3 -2 7 5 8 9 32 10 54 1 22 -1 34 -3 27 -3 -6 -10 -9
-15 -6 -7 5 -8 2 -3 -7 7 -12 5 -12 -6 -1 -12 11 -12 14 1 22 10 7 11 13 4 18
-12 8 -13 30 -13 267 0 246 -1 236 22 223 14 -7 17 -7 13 1 -4 6 -1 11 6 11 9
0 9 3 -2 10 -13 9 -12 12 4 25 10 8 23 12 29 8 6 -3 7 -1 3 6 -4 6 -3 17 2 24
6 7 10 17 9 22 -1 6 10 10 26 10 15 1 27 0 27 -2 0 -1 -12 -9 -27 -18 -27 -15
-27 -16 -3 -9 14 3 32 11 40 18 9 6 6 2 -6 -10 -19 -19 -21 -31 -22 -152 0
-72 -3 -136 -7 -142 -3 -5 -2 -10 4 -10 5 0 8 -8 6 -17 -2 -10 -4 -18 -5 -18
-1 0 -3 -10 -4 -22 -1 -12 2 -19 7 -16 5 3 6 -4 2 -17 -6 -17 -4 -21 6 -14 12
6 12 5 1 -8 -10 -13 -11 -22 -2 -37 13 -25 27 -27 27 -6 0 8 -4 15 -9 15 -4 0
-8 5 -8 11 0 5 3 8 8 5 4 -2 9 55 10 127 1 73 4 147 5 165 2 17 0 38 -4 44 -4
7 -3 18 3 25 6 8 6 13 1 13 -12 0 -10 34 1 37 5 1 13 7 17 15 6 9 9 9 9 1 0
-6 -4 -14 -9 -18 -6 -3 -8 -15 -6 -27 3 -12 0 -25 -6 -29 -7 -4 -6 -8 3 -12 8
-3 15 0 16 6 1 7 3 28 6 47 2 19 -1 41 -7 49 -9 11 -9 13 -1 8 14 -8 20 8 19
50 -1 25 2 30 17 28 16 -4 24 12 19 39 -1 5 7 6 19 3 11 -3 21 -1 21 4 1 5 2
15 3 22 0 6 10 13 21 14 11 1 29 4 40 7 11 2 22 5 25 5 3 1 -2 6 -10 11 -15
10 -14 11 27 15 39 4 53 13 46 31 -5 14 -2 16 20 12 15 -3 28 -1 28 3 1 5 2
14 3 21 0 6 10 12 21 14 11 2 34 5 50 8 17 2 34 5 38 5 5 1 5 6 1 12 -5 8 -9
8 -14 -1 -5 -9 -9 -9 -14 -1 -8 12 -5 13 34 15 14 1 30 4 35 8 6 3 18 4 27 3
11 -2 15 2 11 11 -3 8 -1 14 3 15 5 0 18 3 29 5 11 3 28 5 38 5 9 0 17 7 17
15 0 8 5 14 11 14 5 0 8 -4 5 -9 -3 -5 0 -11 8 -14 10 -4 12 0 8 15 -4 17 -1
19 27 15 26 -5 34 -1 41 16 7 17 9 18 9 5 1 -26 21 -22 21 3 0 19 2 20 17 8 9
-8 14 -9 10 -3 -6 10 14 13 101 17 23 1 23 2 5 15 -17 13 -16 14 6 7 18 -5 22
-4 16 5 -6 9 -4 11 4 6 7 -5 10 -14 7 -22z m-869 -29 c0 -8 -4 -12 -9 -9 -5 3
-6 10 -3 15 9 13 12 11 12 -6z m288 -13 c-3 -3 -11 0 -18 7 -9 10 -8 11 6 5
10 -3 15 -9 12 -12z m-161 -21 c3 -5 -1 -14 -8 -20 -10 -9 -16 -9 -21 -1 -4 6
-3 10 2 9 20 -3 27 2 13 11 -9 6 -10 10 -3 10 6 0 14 -4 17 -9z m-243 -64
c-10 -9 -11 -8 -5 6 3 10 9 15 12 12 3 -3 0 -11 -7 -18z m164 5 c-3 -3 -11 0
-18 7 -9 10 -8 11 6 5 10 -3 15 -9 12 -12z m425 8 c0 -5 -2 -10 -4 -10 -3 0
-8 5 -11 10 -3 6 -1 10 4 10 6 0 11 -4 11 -10z m1430 -45 c-11 -13 -9 -15 9
-12 13 2 26 8 29 13 4 5 16 10 27 12 17 2 16 0 -5 -12 -24 -14 -23 -15 30 -14
30 0 92 -1 138 -3 72 -2 83 -5 79 -19 -3 -10 3 -16 15 -17 16 -2 17 1 8 13 -8
8 -8 14 -2 14 5 0 12 -7 16 -15 3 -10 19 -15 47 -15 32 0 42 -4 46 -20 3 -11
10 -17 15 -14 5 3 7 13 4 21 -4 8 -1 11 5 8 6 -4 8 -13 5 -21 -4 -10 3 -14 22
-16 15 0 34 -2 42 -2 8 -1 14 -9 14 -19 -1 -12 6 -17 27 -18 50 -2 54 -4 54
-19 0 -9 12 -17 29 -20 17 -3 29 -8 28 -12 -5 -19 -1 -28 13 -28 7 0 19 -8 25
-17 11 -17 11 -17 6 0 -4 12 -2 17 6 15 7 -3 13 -9 13 -14 0 -18 16 -33 30
-28 8 4 15 -3 17 -18 2 -15 9 -22 21 -20 10 2 17 -3 17 -13 0 -10 9 -19 20
-22 11 -3 21 -9 21 -14 1 -5 2 -15 3 -21 1 -7 9 -12 19 -10 10 2 17 -3 17 -13
0 -9 7 -18 15 -21 19 -8 48 -64 33 -64 -6 0 -8 -3 -4 -7 4 -5 15 1 23 12 9 11
13 13 10 5 -2 -8 3 -24 12 -34 9 -11 10 -16 4 -12 -7 4 -13 2 -13 -4 0 -7 9
-14 19 -17 12 -3 21 -17 26 -39 3 -19 11 -34 17 -34 5 0 7 7 4 16 -3 8 -2 13
3 10 4 -3 8 -19 9 -36 1 -36 10 -53 26 -47 10 4 16 -24 19 -95 1 -21 4 -25 14
-16 7 6 13 9 14 7 0 -2 2 -13 5 -24 2 -11 5 -48 6 -82 2 -33 5 -60 8 -58 3 2
12 0 19 -4 10 -7 13 -56 12 -217 -1 -115 -3 -219 -5 -232 -3 -27 -23 -51 -23
-28 0 8 5 12 11 9 6 -4 5 1 -3 10 -7 9 -14 17 -15 17 -1 0 -2 -24 -3 -52 -2
-101 -6 -128 -19 -117 -17 14 -23 1 -26 -59 -2 -27 -5 -49 -8 -47 -14 9 -30
-14 -32 -47 -2 -20 -5 -36 -8 -36 -21 1 -30 -5 -30 -21 0 -11 -9 -21 -21 -24
-14 -4 -20 -11 -16 -21 3 -8 2 -18 -4 -22 -6 -3 -8 -12 -5 -20 3 -8 0 -11 -9
-7 -8 3 -12 10 -8 16 3 6 1 7 -6 3 -6 -4 -9 -11 -6 -16 3 -5 0 -21 -6 -37 -6
-16 -13 -22 -16 -15 -7 17 -23 5 -23 -19 0 -12 -7 -19 -20 -19 -11 0 -19 -3
-19 -7 3 -21 -3 -31 -22 -36 -15 -4 -20 -11 -16 -21 5 -11 0 -16 -14 -16 -12
0 -23 -8 -26 -19 -3 -11 -15 -21 -27 -23 -11 -2 -21 -10 -21 -18 0 -8 -7 -16
-15 -16 -8 -1 -19 -3 -25 -4 -5 -1 -13 -2 -17 -1 -8 1 -12 -15 -9 -31 0 -5 -6
-9 -14 -9 -8 -1 -21 -2 -27 -3 -7 -1 -11 -10 -10 -21 3 -17 2 -17 -14 -4 -11
8 -15 9 -10 2 7 -13 -3 -17 -35 -14 -9 1 -19 -7 -22 -19 -3 -12 -14 -20 -29
-21 -82 -4 -83 -4 -80 -22 2 -13 -5 -17 -35 -18 -21 -1 -44 -1 -52 0 -8 2 -10
-2 -5 -11 6 -10 3 -9 -10 1 -15 13 -18 12 -22 -6 -5 -16 -15 -20 -62 -22 -115
-5 -127 -7 -124 -20 1 -7 -2 -10 -8 -6 -6 3 -8 10 -6 14 6 9 -141 7 -151 -2
-3 -4 -11 -7 -17 -7 -7 0 -6 3 1 8 7 4 -33 9 -89 10 -56 1 -107 7 -112 12 -7
7 -5 10 4 10 7 0 10 3 7 6 -4 4 -30 8 -59 10 -71 5 -98 12 -98 25 0 8 4 8 13
0 10 -8 14 -7 14 2 0 8 -13 14 -31 14 -66 1 -74 4 -78 21 -3 10 -11 19 -19 19
-65 4 -81 15 -54 36 6 4 -1 7 -15 6 -41 -2 -48 0 -46 17 1 16 -20 26 -56 25
-10 0 -15 6 -11 15 3 8 -5 17 -21 24 -14 5 -26 16 -26 25 0 8 -9 15 -20 15
-12 0 -20 7 -20 16 0 9 -9 18 -20 21 -11 3 -20 12 -20 20 0 8 -9 17 -20 20
-12 3 -19 12 -18 22 2 10 -5 17 -20 19 -15 2 -22 8 -18 18 6 15 -27 38 -39 26
-3 -4 -5 0 -3 8 1 8 8 18 13 22 6 5 5 8 -2 8 -7 0 -13 9 -13 20 0 11 -7 20
-15 20 -9 0 -20 12 -25 26 -6 14 -14 23 -19 19 -5 -3 -12 -1 -15 4 -4 5 -1 13
5 17 8 5 9 3 4 -6 -6 -9 -4 -11 5 -5 10 6 10 10 -2 19 -9 6 -17 20 -19 31 -3
11 -11 20 -19 20 -10 0 -16 11 -16 30 -1 17 -2 38 -3 48 -1 12 -5 16 -13 11
-8 -5 -7 -1 1 10 13 16 13 17 -4 14 -20 -3 -19 -4 -25 97 -4 57 -7 68 -21 59
-6 -4 -6 -11 1 -19 8 -9 8 -15 0 -20 -5 -3 -11 -3 -11 2 -3 21 -10 253 -9 293
1 25 2 86 3 136 1 65 5 91 14 91 9 0 9 -5 2 -20 -6 -10 -8 -21 -5 -25 3 -3 6
0 6 7 0 7 3 10 8 8 4 -3 9 23 10 56 6 102 6 102 25 99 14 -2 17 5 17 38 0 22
5 40 10 40 6 0 10 7 10 16 0 8 4 13 9 10 5 -3 8 8 7 25 -1 16 1 32 6 35 5 3 6
9 3 14 -3 5 0 12 6 16 8 4 9 3 5 -4 -4 -7 -1 -12 6 -12 10 0 10 -2 -1 -9 -9
-6 -10 -11 -2 -15 11 -7 15 5 12 32 -1 6 2 12 8 12 5 0 7 9 4 20 -4 15 0 20
16 20 16 0 21 6 21 26 0 17 4 23 13 18 9 -6 9 -5 0 8 -15 17 -7 29 13 21 12
-5 16 4 13 35 0 4 10 10 23 13 15 3 22 12 20 22 -2 11 4 17 18 17 13 0 20 7
20 20 0 13 7 20 20 20 14 0 20 7 20 21 0 15 5 19 15 15 16 -6 39 26 27 39 -4
4 2 6 14 3 11 -3 29 1 40 10 16 12 16 14 2 9 -10 -4 -18 -2 -18 3 0 6 9 10 19
10 11 0 22 4 26 10 3 5 12 7 19 4 9 -3 13 1 13 12 -2 11 11 21 38 29 33 11 41
21 12 16 -5 -1 -6 3 -2 9 3 6 10 8 14 6 11 -7 61 8 60 18 -1 14 24 26 58 26
43 0 63 9 56 26 -4 11 5 14 36 14 23 0 54 8 68 17 14 10 47 18 72 20 25 1 77
3 114 4 40 2 72 8 79 16 6 7 13 13 15 13 3 0 0 -7 -7 -15z m2131 -48 c-10 -9
-11 -8 -5 6 3 10 9 15 12 12 3 -3 0 -11 -7 -18z m46 -122 c0 -8 -4 -12 -9 -9
-5 3 -6 10 -3 15 9 13 12 11 12 -6z m-4117 -105 c0 -5 -5 -10 -11 -10 -5 0 -7
5 -4 10 3 6 8 10 11 10 2 0 4 -4 4 -10z m3406 -84 c0 -46 -2 -54 -17 -53 -11
1 -16 8 -14 19 4 19 -27 42 -40 30 -5 -4 -5 -1 -1 6 5 7 13 11 20 9 6 -3 20 1
31 9 10 8 15 14 11 14 -4 0 -4 5 -1 10 10 15 10 14 11 -44z m798 -78 c-3 -4
-9 -8 -15 -8 -5 0 -9 4 -9 8 0 5 7 9 15 9 8 0 12 -4 9 -9z m8 -42 c-3 -14 8
-20 30 -17 4 0 6 -9 5 -20 -1 -19 -2 -19 -14 -3 -7 10 -13 13 -13 6 0 -6 10
-18 23 -27 12 -8 21 -18 20 -20 -7 -12 -2 -26 6 -20 5 3 13 0 17 -6 4 -8 3 -9
-4 -5 -7 4 -12 3 -12 -3 0 -5 4 -11 9 -13 6 -1 12 -15 15 -30 2 -15 7 -32 10
-37 4 -5 1 -12 -4 -14 -6 -3 -5 -4 2 -3 7 2 12 10 12 19 -1 9 2 14 6 12 5 -3
9 -13 9 -23 2 -45 5 -59 23 -81 20 -27 23 -41 7 -41 -5 0 -8 4 -5 9 3 4 -1 17
-9 27 -8 10 -15 14 -15 7 0 -6 5 -15 10 -18 6 -4 8 -10 5 -15 -3 -5 2 -13 10
-18 11 -6 17 -26 19 -65 1 -31 6 -60 11 -64 4 -5 5 -1 0 7 -7 12 -6 13 6 2 11
-10 14 -57 15 -227 0 -122 -3 -212 -8 -208 -5 3 -7 11 -5 17 3 7 0 13 -6 13
-7 0 -12 -15 -12 -34 0 -18 4 -33 10 -33 5 0 4 -4 -4 -9 -8 -5 -13 -25 -13
-50 1 -33 -3 -41 -17 -41 -17 0 -21 -16 -21 -87 0 -12 -5 -25 -11 -29 -6 -3
-9 1 -7 11 2 10 -4 20 -12 22 -12 4 -12 3 -1 -5 9 -7 10 -12 2 -16 -6 -4 -11
-17 -11 -29 0 -40 -3 -56 -11 -52 -12 8 -31 -24 -31 -52 0 -21 -2 -23 -10 -9
-5 9 -14 14 -19 10 -6 -4 -6 -11 2 -20 8 -10 8 -14 0 -14 -6 0 -11 -11 -11
-24 0 -17 -5 -23 -17 -21 -10 1 -17 9 -15 19 2 9 -2 16 -8 16 -7 0 -9 8 -4 23
6 21 6 21 -15 -3 l-22 -25 18 30 c17 28 26 128 11 118 -5 -2 -8 1 -8 8 0 7 -3
9 -6 6 -4 -4 -1 -13 6 -22 8 -10 9 -15 1 -15 -14 0 -13 -5 -16 120 -8 264 -6
254 -35 252 -3 0 -6 18 -7 41 -5 116 -8 155 -13 150 -3 -2 -5 -9 -5 -14 0 -5
-4 -10 -9 -11 -5 -2 -10 14 -11 35 -1 27 3 36 12 33 7 -3 15 0 19 6 4 7 3 8
-4 4 -7 -4 -12 -2 -12 4 0 6 -4 8 -10 5 -6 -3 -7 1 -4 9 3 9 10 16 16 16 5 0
6 -5 2 -12 -5 -7 -3 -8 5 -4 7 5 10 14 7 22 -3 8 0 14 7 15 9 0 9 2 0 5 -8 4
-9 13 -3 29 5 12 6 26 3 29 -4 3 -1 6 5 6 7 0 12 5 12 11 0 5 -6 7 -12 3 -9
-5 -8 -2 1 10 11 13 16 14 22 4 5 -8 7 2 6 25 -2 21 1 37 7 38 6 0 6 3 -1 5
-8 4 -9 13 -3 29 5 12 6 32 4 42 -4 13 2 23 18 31 22 12 22 12 1 7 -19 -5 -21
-3 -17 17 3 13 7 30 8 38 2 8 -2 18 -8 22 -8 5 -7 8 2 8 8 0 10 5 6 13 -4 7
-3 9 2 4 12 -12 12 -70 -1 -80 -6 -5 -4 -7 5 -5 10 3 15 20 16 56 1 35 -2 49
-10 45 -6 -3 -5 0 2 8 6 7 12 19 12 27 0 8 -5 10 -12 6 -10 -6 -10 -4 0 8 7 8
12 28 11 44 -3 48 0 54 24 50 14 -2 21 -9 19 -20z m-331 -19 c-10 -9 -11 -8
-5 6 3 10 9 15 12 12 3 -3 0 -11 -7 -18z m-4086 -17 c3 -5 2 -10 -4 -10 -5 0
-13 5 -16 10 -3 6 -2 10 4 10 5 0 13 -4 16 -10z m4363 -15 c-3 -3 -9 2 -12 12
-6 14 -5 15 5 6 7 -7 10 -15 7 -18z m-4360 -16 c-10 -6 -9 -11 5 -21 17 -13
17 -14 -2 -15 -11 -1 -20 1 -20 5 1 4 1 14 0 22 -1 13 -2 13 -11 0 -5 -9 -5
-19 0 -25 5 -6 8 -28 7 -48 -2 -24 1 -37 9 -37 6 0 15 -7 18 -16 5 -14 4 -15
-9 -4 -8 7 -15 8 -15 2 0 -15 26 -33 36 -24 4 4 3 0 -3 -8 -6 -9 -9 -44 -7
-85 2 -38 5 -102 7 -141 2 -38 7 -76 12 -84 5 -7 4 -11 -1 -7 -5 3 -9 -6 -9
-19 0 -28 -1 -28 19 -8 15 14 16 13 16 -6 0 -12 -4 -19 -9 -15 -5 3 -13 1 -16
-5 -4 -6 -1 -9 5 -8 15 4 19 -16 23 -100 2 -34 7 -65 12 -70 4 -4 5 -2 2 4 -4
7 -1 14 6 17 10 4 13 -8 12 -42 0 -31 -4 -45 -13 -43 -6 1 -13 -4 -14 -10 0
-7 -2 -17 -3 -23 -2 -5 -3 -29 -4 -53 -1 -26 -5 -41 -11 -37 -6 4 -8 11 -5 16
4 5 1 9 -5 9 -7 0 -9 -8 -5 -21 5 -16 4 -19 -5 -14 -9 5 -11 4 -6 -4 4 -6 11
-9 16 -6 5 3 12 1 15 -5 4 -6 3 -10 -2 -9 -22 4 -29 -3 -30 -28 -1 -16 -2 -63
-3 -105 -1 -43 -6 -78 -11 -78 -5 0 -6 -8 -3 -17 5 -15 4 -15 -4 -3 -6 8 -8
19 -4 25 13 20 10 64 -6 70 -12 4 -12 2 -4 -8 7 -8 9 -17 5 -21 -11 -11 -10
-215 1 -209 5 4 6 1 1 -8 -13 -21 -14 -52 -2 -69 9 -12 8 -13 -2 -3 -7 6 -21
9 -30 5 -12 -5 -12 -2 3 14 20 19 19 19 -3 22 -12 2 -20 9 -18 15 2 7 -2 18
-9 25 -8 7 -14 9 -14 5 0 -4 -6 3 -13 17 -7 14 -12 41 -11 60 2 27 1 31 -7 18
-6 -10 -14 -18 -19 -18 -12 0 -9 22 5 32 6 5 5 8 -2 8 -7 0 -13 9 -13 20 0 17
-9 24 -30 22 -3 0 -6 12 -7 26 -5 86 -6 90 -19 85 -8 -3 -15 -1 -15 3 -4 26
-10 94 -12 127 -1 33 -7 41 -27 39 -10 -1 -6 43 4 50 8 5 8 8 0 8 -7 0 -10 55
-10 170 0 146 3 170 16 167 10 -1 15 6 16 23 3 103 4 111 17 104 9 -6 9 -4 -1
8 -8 10 -9 18 -3 22 6 4 8 14 5 24 -3 9 1 6 10 -8 14 -25 15 -25 14 19 0 24 5
47 12 51 9 5 9 9 1 14 -16 10 -4 26 14 19 11 -4 15 3 15 25 0 39 9 64 22 56 5
-4 5 -11 -1 -18 -8 -9 -7 -13 3 -13 8 0 13 7 11 16 -1 9 3 30 10 48 7 17 10
35 7 39 -4 4 -1 4 6 0 7 -4 9 -13 6 -19 -4 -7 -3 -8 2 -4 5 5 10 13 10 18 1 5
2 14 3 20 0 5 7 7 14 3 9 -6 9 -5 0 8 -17 20 -10 25 32 25 22 0 31 -3 23 -8z
m12 -53 c0 -2 -8 -10 -17 -17 -16 -13 -17 -12 -4 4 13 16 21 21 21 13z m5 -56
c3 -6 -1 -7 -9 -4 -18 7 -21 14 -7 14 6 0 13 -4 16 -10z m4575 6 c0 -3 -4 -8
-10 -11 -5 -3 -10 -1 -10 4 0 6 5 11 10 11 6 0 10 -2 10 -4z m-3940 -28 c0 -5
-5 -6 -11 -3 -6 4 -5 -2 3 -14 11 -18 10 -23 -8 -35 -17 -12 -22 -27 -24 -83
-1 -37 -3 -80 -4 -94 -1 -20 -5 -25 -19 -21 -15 4 -17 0 -12 -27 5 -29 3 -32
-15 -26 -15 5 -22 1 -29 -17 -4 -13 -6 -29 -3 -36 2 -8 -4 -16 -16 -19 -12 -3
-22 -15 -24 -27 -2 -12 -9 -20 -18 -19 -11 2 -17 -6 -18 -22 -4 -50 -6 -56
-19 -51 -15 6 -32 -21 -28 -46 2 -11 -3 -15 -16 -13 -11 2 -19 -2 -19 -10 0
-9 7 -12 18 -9 12 4 12 2 -3 -8 -12 -7 -19 -20 -17 -29 2 -11 -3 -16 -15 -15
-14 1 -19 -7 -21 -36 -3 -34 -11 -43 -34 -39 -5 0 -8 -6 -8 -15 0 -14 3 -14
15 -4 9 7 15 8 15 2 0 -5 -7 -12 -15 -16 -8 -3 -15 -15 -15 -27 0 -16 -5 -20
-19 -16 -13 3 -18 0 -16 -12 1 -9 0 -20 -3 -25 -11 -19 -10 -71 1 -79 7 -4 2
-6 -10 -4 -12 2 -26 7 -30 12 -5 4 -2 5 5 1 14 -8 17 10 2 19 -5 3 -10 30 -10
58 0 37 3 48 10 37 5 -8 10 -10 10 -4 0 6 -3 14 -7 18 -12 12 -10 53 2 53 6 0
12 -6 12 -13 0 -7 -5 -10 -10 -7 -6 3 -7 1 -3 -5 13 -22 26 -12 22 18 -2 17
-1 30 3 30 3 0 6 17 5 37 0 54 6 78 17 61 12 -19 11 -30 -3 -22 -7 4 -8 3 -4
-5 9 -14 27 -4 24 12 -1 7 2 31 6 55 6 30 12 42 21 38 9 -3 14 3 14 15 1 10 1
28 2 39 0 11 9 25 20 30 10 6 19 17 19 25 0 8 6 15 13 16 10 0 10 2 0 6 -22 8
-15 32 7 28 12 -2 20 1 18 8 -1 7 2 27 6 45 7 28 10 31 22 21 9 -7 14 -8 13
-3 -5 30 2 56 15 51 21 -8 27 3 15 26 -7 12 -7 17 -1 13 11 -7 25 21 17 35 -4
5 1 6 9 3 11 -4 19 2 26 20 5 14 17 26 25 26 9 0 14 4 10 9 -3 5 1 15 8 23 8
7 12 18 10 25 -2 6 0 14 5 17 6 3 9 -2 8 -11 0 -9 6 -18 14 -20 13 -4 13 -3 0
6 -10 7 -11 11 -2 11 6 0 11 3 11 8 -5 30 2 51 16 46 8 -4 15 -10 15 -16z
m3514 -76 c3 -5 -1 -9 -9 -9 -8 0 -12 4 -9 9 3 4 7 8 9 8 2 0 6 -4 9 -8z m-36
-156 c2 -33 -2 -64 -8 -71 -7 -8 -9 -19 -5 -24 4 -7 0 -8 -10 -4 -13 4 -16 1
-13 -13 2 -10 -5 -26 -15 -35 -12 -9 -21 -33 -24 -60 -8 -73 -9 -78 -18 -86
-4 -5 -5 -3 -2 3 4 7 1 14 -6 17 -8 3 -13 -3 -14 -17 -3 -62 -7 -75 -23 -66
-17 9 -18 8 -21 -45 -1 -14 -6 -28 -12 -32 -6 -3 -7 -1 -3 5 5 8 2 10 -9 6
-13 -5 -13 -9 -3 -22 10 -12 10 -14 1 -8 -13 7 -18 -9 -15 -49 1 -11 -1 -15
-5 -10 -12 15 -34 17 -32 3 3 -27 -2 -37 -21 -43 -13 -4 -20 -15 -20 -31 0
-18 -4 -23 -12 -18 -10 6 -10 4 0 -8 10 -13 10 -17 -3 -22 -11 -4 -14 -2 -9 6
4 7 3 8 -4 4 -7 -4 -12 -18 -12 -31 0 -13 -5 -27 -12 -31 -7 -4 -8 -3 -4 4 4
7 1 12 -8 12 -9 0 -13 -7 -11 -19 3 -18 -18 -37 -37 -33 -7 2 -13 -37 -9 -60
0 -3 -7 -5 -17 -4 -14 2 -17 14 -18 60 0 31 4 60 9 63 6 3 7 1 3 -5 -4 -7 -3
-12 3 -12 6 0 8 -8 4 -17 -3 -10 -3 -15 2 -11 8 8 11 32 17 139 2 36 7 56 15
56 9 0 9 -4 3 -12 -7 -8 -5 -12 3 -12 13 0 16 6 19 48 2 14 8 19 20 16 14 -4
18 1 18 19 0 17 6 24 20 24 14 0 20 7 22 23 2 39 3 42 13 42 6 0 9 -6 7 -15
-2 -13 -1 -13 7 0 5 8 8 17 5 21 -2 4 0 10 5 14 6 3 7 13 4 22 -4 9 -2 14 3
10 17 -10 32 7 37 43 3 19 6 37 6 39 1 2 7 -2 14 -8 10 -8 14 -7 15 2 3 35 11
52 23 50 9 -2 16 6 17 20 4 39 8 56 15 63 4 4 7 1 7 -6 0 -31 21 9 23 43 1 20
8 39 15 42 7 3 10 0 7 -5 -3 -5 0 -7 7 -5 9 4 13 21 13 49 -1 34 2 43 14 41
12 -1 17 -16 19 -59z m188 42 c4 -7 3 -8 -4 -4 -7 4 -12 2 -12 -5 0 -7 -3 -10
-6 -6 -6 5 3 27 11 27 2 0 7 -5 11 -12z m-994 -43 c-8 -16 -9 -16 -15 -1 -4
10 -3 15 3 11 6 -3 10 -1 10 6 0 7 3 10 6 6 3 -3 2 -13 -4 -22z m-3245 -72 c0
-16 -1 -20 -4 -10 -2 9 -9 15 -14 12 -5 -4 -9 -2 -9 4 0 5 6 12 13 14 6 3 12
6 12 6 0 1 1 -11 2 -26z m4629 -28 c-9 -9 -16 -13 -16 -8 0 12 22 34 28 28 2
-2 -3 -11 -12 -20z m-4655 -8 c-10 -9 -11 -8 -5 6 3 10 9 15 12 12 3 -3 0 -11
-7 -18z m514 13 c-3 -5 -12 -10 -18 -10 -7 0 -6 4 3 10 19 12 23 12 15 0z
m4151 -46 c-4 -9 -9 -15 -11 -12 -3 3 -3 13 1 22 4 9 9 15 11 12 3 -3 3 -13
-1 -22z m-629 -31 c0 -16 -2 -22 -4 -15 -3 6 -9 9 -15 6 -6 -4 -5 2 1 15 15
28 19 27 18 -6z m-3527 -76 c0 -7 -4 -6 -10 3 -6 9 -10 10 -10 3 0 -7 8 -16
17 -22 15 -8 18 -26 19 -118 2 -134 2 -133 15 -133 8 0 8 4 1 13 -14 16 -10
44 8 60 12 10 12 9 1 -5 -11 -15 -11 -18 0 -19 10 0 11 -2 2 -6 -7 -2 -13 -9
-13 -14 0 -6 4 -8 8 -5 8 4 11 -24 16 -129 1 -33 13 -58 25 -51 3 3 7 -3 7
-12 2 -37 13 -112 18 -121 4 -5 1 -12 -4 -14 -6 -3 -5 -4 2 -3 7 2 11 12 10
22 -2 10 -1 16 3 12 4 -4 9 -28 11 -53 3 -35 1 -44 -9 -39 -9 6 -9 4 -1 -7 13
-17 16 -62 4 -54 -5 3 -12 1 -15 -5 -4 -6 -1 -9 7 -8 9 2 13 -9 15 -34 0 -21
-3 -36 -7 -33 -5 3 -12 1 -15 -5 -4 -6 -1 -9 7 -8 10 2 14 -15 15 -67 6 -216
6 -209 20 -189 7 10 13 13 13 7 0 -7 -6 -18 -13 -25 -15 -15 -16 -33 -3 -45 5
-5 6 -2 1 7 -6 12 -5 12 5 3 11 -10 21 -76 23 -157 1 -26 2 -27 14 -10 7 10
13 13 13 7 0 -7 -7 -18 -15 -26 -16 -17 -8 -32 10 -17 8 6 12 0 13 -23 1 -26
8 -98 11 -129 1 -5 6 -8 12 -8 8 0 8 5 -1 15 -9 11 -9 15 -1 15 7 0 9 5 5 13
-4 6 -3 9 1 4 5 -4 10 -20 11 -35 1 -15 5 -44 8 -64 6 -33 5 -38 -11 -38 -11
0 -25 6 -32 12 -11 11 -12 10 -5 -2 5 -8 9 -19 9 -24 0 -13 36 -17 54 -6 11 7
12 9 3 10 -7 0 -10 5 -7 10 12 20 21 10 22 -25 0 -19 -4 -35 -9 -35 -5 0 -6 5
-3 10 3 6 1 10 -4 10 -18 0 -12 -20 8 -28 19 -7 21 -10 21 -32 0 -5 4 -10 10
-10 5 0 7 6 4 14 -3 8 -2 16 3 19 5 3 9 -2 10 -11 0 -9 3 -33 6 -52 3 -19 6
-38 6 -42 1 -5 6 -8 12 -8 8 0 8 5 -1 15 -10 12 -10 15 2 15 15 0 16 -2 21
-59 2 -20 12 -40 27 -51 31 -23 17 -41 -29 -38 -26 2 -38 8 -37 18 1 13 -19
20 -65 21 -9 0 -16 8 -15 17 1 12 -8 18 -27 20 -22 3 -27 8 -23 20 5 15 5 15
-7 0 -8 -10 -17 -15 -20 -11 -4 3 -2 12 3 19 8 8 7 12 -2 11 -33 -1 -46 4 -50
21 -3 10 -11 19 -19 20 -34 2 -54 11 -51 21 1 6 -9 16 -23 21 -14 5 -25 16
-25 25 0 8 -9 15 -19 15 -12 0 -21 9 -25 25 -4 14 -11 23 -16 20 -6 -3 -11 -1
-11 4 -1 6 -2 17 -3 24 0 6 -6 12 -13 12 -6 0 -15 4 -20 9 -4 5 -3 6 3 3 7 -4
15 0 18 8 4 11 0 15 -12 13 -11 -2 -17 3 -17 14 0 10 -10 24 -21 33 -15 10
-21 23 -19 45 1 17 -1 33 -6 36 -17 10 -9 20 29 38 20 10 32 12 26 6 -7 -6 -9
-20 -7 -31 5 -18 7 -19 23 -4 14 12 20 13 26 4 4 -7 3 -10 -4 -5 -6 3 -13 2
-17 -4 -6 -9 16 -15 39 -11 5 1 6 -5 3 -14 -4 -8 -2 -15 4 -15 6 0 7 -5 3 -11
-5 -8 -1 -8 14 0 27 15 38 44 13 36 -20 -6 -46 18 -36 35 4 6 -7 8 -31 5 -29
-3 -35 -2 -26 7 18 18 15 28 -9 28 -11 0 -18 4 -15 9 4 5 -3 7 -13 4 -11 -3
-17 -11 -15 -18 3 -7 0 -16 -7 -21 -7 -4 -10 -3 -6 2 3 6 1 16 -4 24 -7 11 -8
7 -5 -12 5 -28 -8 -39 -17 -15 -6 16 12 49 22 43 5 -3 17 4 27 17 13 15 14 18
3 9 -14 -10 -18 -10 -23 5 -6 15 -8 15 -16 3 -9 -13 -10 -13 -11 0 -1 8 -1 21
0 28 1 6 -5 12 -12 12 -8 0 -20 7 -27 15 -9 10 -9 15 -1 15 6 0 11 -5 11 -12
0 -6 3 -8 7 -5 3 4 -1 15 -9 24 -9 10 -16 36 -17 58 -3 122 -8 150 -25 149
-13 -2 -14 1 -5 12 6 8 16 11 23 7 6 -3 0 6 -13 20 -25 27 -17 38 9 15 8 -7 7
-3 -3 8 -25 30 -31 173 -7 169 8 -2 19 -4 24 -4 6 -1 1 -8 -10 -16 -13 -11
-14 -14 -4 -13 9 2 14 -3 12 -14 -2 -10 2 -18 8 -18 6 0 9 4 5 9 -10 17 12 21
25 6 8 -10 9 -15 2 -15 -8 0 -8 -9 -1 -29 8 -21 15 -28 26 -24 11 4 14 2 9 -5
-4 -7 -3 -12 3 -12 6 0 9 -13 7 -30 -2 -16 0 -28 3 -25 14 8 31 -12 33 -37 1
-15 7 -24 12 -21 5 4 7 0 4 -9 -4 -8 -1 -15 5 -15 7 0 12 18 13 44 0 30 -3 40
-10 34 -7 -6 -16 -4 -24 5 -7 8 -9 14 -5 14 4 0 1 5 -7 10 -10 6 -11 10 -2 10
6 0 12 9 12 20 0 11 -4 20 -10 20 -5 0 -7 -8 -4 -17 2 -10 -1 -8 -7 5 -7 12
-15 22 -19 22 -3 0 -6 15 -5 34 2 28 -1 34 -17 31 -18 -4 -20 0 -20 48 -1 15
-5 27 -10 27 -5 0 -6 5 -2 12 4 7 3 8 -4 4 -14 -8 -15 -4 -17 97 0 42 3 77 7
77 4 0 8 -5 8 -12 0 -6 3 -8 7 -5 6 6 13 66 16 134 1 14 7 22 15 20 14 -2 23
36 25 101 1 16 6 22 17 19 9 -2 17 1 18 7 0 6 2 28 3 48 1 21 11 47 22 59 11
11 20 35 21 52 1 21 7 33 19 35 9 2 18 13 18 25 1 12 2 27 4 32 1 6 3 14 3 18
3 12 22 -2 22 -16z m-450 4 c0 -6 -4 -12 -8 -15 -5 -3 -9 1 -9 9 0 8 4 15 9
15 4 0 8 -4 8 -9z m4137 -63 c5 -117 9 -157 17 -165 5 -5 6 -2 1 7 -7 12 -6
13 6 2 15 -14 19 -81 20 -332 2 -205 -1 -242 -17 -236 -9 3 -14 -2 -14 -14 0
-10 -5 -22 -11 -25 -6 -4 -8 -14 -5 -22 5 -11 2 -13 -10 -9 -8 3 -22 6 -30 6
-8 0 -14 4 -14 10 0 5 3 9 8 9 4 -1 14 -1 22 0 13 1 13 3 0 11 -10 6 -13 23
-11 57 8 121 7 163 -5 159 -15 -6 9 43 28 56 10 8 9 9 -3 5 -9 -3 -22 -1 -30
4 -11 7 -10 9 6 9 19 1 19 1 3 14 -18 13 -25 32 -9 22 5 -3 11 1 15 9 3 8 1
15 -4 15 -6 0 -10 5 -10 11 0 5 5 7 11 3 8 -5 8 -1 0 14 -16 30 -14 36 7 21
15 -12 16 -12 5 2 -7 9 -10 19 -6 22 12 13 -13 7 -26 -5 -11 -11 -11 -9 0 9 7
12 17 19 22 16 5 -3 4 4 -2 15 -6 12 -7 23 -2 26 13 9 6 42 -9 38 -7 -1 -8 2
-4 10 5 7 9 37 11 67 2 49 1 52 -13 35 -15 -18 -15 -18 -6 1 5 11 8 28 7 38
-2 11 1 15 8 10 7 -3 9 -3 5 2 -4 4 -3 17 3 28 8 14 8 18 0 13 -7 -5 -10 1 -7
16 3 13 5 24 7 26 1 1 3 7 4 12 1 6 3 12 4 15 0 3 7 5 14 5 8 0 13 -16 14 -42z
m-4157 8 c0 -2 -8 -10 -17 -17 -16 -13 -17 -12 -4 4 13 16 21 21 21 13z m4106
-58 c4 -7 3 -8 -4 -4 -7 4 -12 2 -12 -3 0 -6 -5 -11 -11 -11 -8 0 -8 5 1 15
15 18 17 18 26 3z m-19 -121 c-2 -49 2 -91 7 -94 5 -3 6 -1 3 4 -4 6 0 14 8
17 13 4 14 2 5 -14 -6 -11 -14 -20 -18 -20 -4 0 -7 -25 -7 -55 0 -30 4 -55 9
-55 4 0 5 8 1 18 -5 14 -4 15 7 4 11 -11 10 -16 -6 -28 -11 -8 -14 -14 -8 -14
9 0 10 -6 5 -17 -5 -10 -8 -71 -8 -135 0 -65 -3 -118 -7 -118 -7 0 -5 -19 3
-35 9 -16 4 -49 -10 -70 -9 -15 -11 -16 -7 -2 3 10 0 17 -7 17 -7 0 -13 -15
-13 -35 -3 -69 -4 -74 -24 -80 -11 -3 -20 -11 -20 -16 0 -6 8 -6 20 1 11 6 20
8 20 6 0 -7 -57 -37 -67 -35 -4 0 -10 -8 -14 -18 -3 -10 -15 -18 -25 -18 -12
0 -18 -6 -17 -18 0 -10 -1 -16 -4 -13 -3 3 -15 0 -27 -6 -20 -10 -20 -10 -6 7
15 18 14 18 -12 1 -16 -10 -28 -24 -28 -30 0 -6 -10 -12 -22 -13 -12 -1 -28
-10 -37 -19 -15 -16 -15 -17 0 -6 12 9 16 9 16 -2 0 -8 -8 -13 -18 -11 -10 2
-21 -1 -24 -6 -4 -5 -11 -7 -16 -4 -5 4 -17 1 -26 -4 -17 -10 -17 -10 0 -11
34 0 9 -16 -30 -18 -21 -2 -39 -6 -41 -10 -9 -24 -23 -33 -50 -34 -22 -1 -32
-7 -36 -21 -4 -18 -7 -19 -22 -6 -12 9 -15 10 -10 2 5 -9 -2 -13 -26 -14 -18
-1 -36 -1 -40 0 -5 0 -8 -4 -8 -10 0 -5 -6 -7 -12 -3 -10 6 -10 5 -1 -7 10
-12 7 -15 -20 -18 -18 -2 -44 -4 -59 -3 -16 0 -28 -5 -28 -10 0 -6 -8 -7 -17
-4 -17 6 -17 5 0 -8 19 -14 6 -17 -105 -18 -23 -1 -39 -7 -43 -16 -4 -11 -2
-12 8 -4 8 7 18 7 27 2 8 -6 11 -10 5 -11 -5 0 -28 -3 -50 -5 -22 -2 -74 -6
-115 -8 -97 -5 -93 -4 -87 -18 3 -10 -14 -14 -62 -16 -46 -1 -61 1 -51 8 8 5
11 10 5 10 -5 0 -4 4 4 9 8 5 23 8 34 6 14 -3 17 0 13 12 -6 14 -4 14 11 2 15
-12 16 -12 10 3 -5 13 0 19 18 24 13 3 27 14 30 25 4 10 9 18 13 18 25 -4 62
3 62 11 0 5 -7 7 -15 4 -8 -4 -15 -1 -15 6 0 6 4 9 9 5 5 -3 12 -1 16 5 3 5
15 10 26 10 11 0 19 7 19 16 0 9 9 18 19 21 11 3 22 14 25 26 3 12 8 18 12 14
10 -9 35 13 28 24 -5 8 9 13 29 10 4 0 7 8 7 18 0 10 7 22 16 25 15 6 15 4 3
-11 -8 -9 -9 -14 -2 -10 6 4 13 1 16 -5 3 -7 5 -4 6 7 2 55 6 61 34 56 4 0 8
4 8 9 1 6 2 16 3 23 1 6 7 11 14 9 7 -1 17 9 22 22 5 13 17 26 27 28 10 2 18
12 18 23 0 11 7 20 15 20 8 0 15 9 15 20 0 12 7 20 17 20 23 0 32 11 17 21 -8
5 -10 3 -4 -6 5 -9 4 -11 -4 -6 -6 4 -9 12 -5 17 3 5 10 7 15 4 5 -4 9 -1 9 5
0 7 8 9 21 5 15 -5 19 -4 15 4 -4 6 0 18 8 27 9 8 16 12 16 8 0 -3 7 -1 15 6
8 7 13 16 10 20 -3 5 5 10 17 12 13 2 23 10 23 18 0 8 9 15 20 15 13 0 19 6
17 18 -2 9 2 18 8 18 5 1 16 2 23 3 6 0 13 7 13 14 1 6 2 17 3 23 0 5 6 7 11
4 6 -4 7 -12 4 -18 -4 -7 -3 -8 2 -4 5 5 9 14 9 20 1 7 7 11 15 9 11 -2 11 0
1 11 -9 12 -8 16 4 21 9 3 13 2 10 -3 -3 -5 -1 -13 5 -16 6 -4 10 -3 9 2 -1 4
0 13 1 18 1 6 3 17 4 25 0 8 10 15 21 15 11 0 21 6 21 13 1 6 2 17 3 23 0 6 8
9 16 5 14 -5 19 5 16 32 -1 7 2 12 6 11 21 -4 33 2 33 16 0 9 7 18 15 21 8 3
21 19 29 35 8 16 10 27 5 24 -5 -4 -9 -1 -9 4 0 17 18 13 30 -6 10 -16 10 -15
5 4 -3 12 -1 24 4 27 6 4 8 13 4 22 -3 8 -2 14 3 13 24 -4 34 3 34 24 0 13 7
32 16 43 15 19 15 18 5 -2 -7 -15 -7 -21 2 -21 7 0 13 7 14 16 4 46 8 61 21
66 8 3 10 0 6 -7 -5 -7 -3 -8 5 -4 7 5 10 14 7 22 -3 8 -1 14 3 14 5 0 8 8 6
18 -4 24 2 31 25 29 17 -1 19 -9 17 -90z m143 59 c0 -3 -4 -8 -10 -11 -5 -3
-10 -1 -10 4 0 6 5 11 10 11 6 0 10 -2 10 -4z m-35 -26 c3 -6 -1 -7 -9 -4 -18
7 -21 14 -7 14 6 0 13 -4 16 -10z m-94 -33 c-10 -9 -11 -8 -5 6 3 10 9 15 12
12 3 -3 0 -11 -7 -18z m-3756 4 c3 -5 2 -12 -3 -15 -5 -3 -9 1 -9 9 0 17 3 19
12 6z m3762 -36 c0 -8 -4 -12 -9 -9 -4 3 -8 9 -8 15 0 5 4 9 8 9 5 0 9 -7 9
-15z m520 -17 c-3 -8 -6 -5 -6 6 -1 11 2 17 5 13 3 -3 4 -12 1 -19z m-4967 2
c0 -5 -5 -10 -11 -10 -5 0 -7 5 -4 10 3 6 8 10 11 10 2 0 4 -4 4 -10z m4959
-26 c4 3 8 -1 8 -9 0 -11 -4 -12 -14 -4 -7 6 -13 17 -12 23 0 7 2 6 6 -2 2 -6
8 -10 12 -8z m-4422 -21 c0 -7 -3 -11 -5 -8 -3 3 -12 -1 -21 -8 -14 -10 -14
-10 -4 4 7 9 11 18 8 21 -3 2 1 5 8 5 8 0 14 -6 14 -14z m3600 4 c0 -8 -6 -14
-14 -14 -9 0 -10 4 -2 14 6 7 12 13 14 13 1 0 2 -6 2 -13z m-3496 -44 c13 -16
12 -17 -3 -4 -17 13 -22 21 -14 21 2 0 10 -8 17 -17z m3809 7 c0 -5 -2 -10 -4
-10 -3 0 -8 5 -11 10 -3 6 -1 10 4 10 6 0 11 -4 11 -10z m-4015 -80 c-3 -5 -2
-10 4 -10 5 0 11 6 14 13 2 6 3 -21 2 -60 0 -40 -4 -76 -8 -79 -12 -12 -8 -26
5 -18 7 5 8 3 3 -6 -6 -10 -11 -9 -21 5 -8 10 -17 16 -20 12 -4 -4 -1 -13 5
-21 11 -13 9 -15 -9 -11 -26 5 -40 15 -21 15 7 0 10 4 6 9 -3 5 4 12 15 16 20
6 26 20 13 28 -5 2 -1 2 7 0 11 -2 11 0 -2 10 -10 8 -15 17 -12 20 3 3 7 22 9
44 3 44 3 43 11 43 3 0 2 -4 -1 -10z m3582 -43 c0 -8 -6 -14 -14 -14 -9 0 -10
4 -2 14 6 7 12 13 14 13 1 0 2 -6 2 -13z m-3407 -27 c0 -5 -7 -7 -15 -4 -8 4
-12 10 -9 15 6 11 24 2 24 -11z m3995 -28 c-3 -3 -11 0 -18 7 -9 10 -8 11 6 5
10 -3 15 -9 12 -12z m-674 -9 c12 -14 12 -16 0 -8 -11 6 -13 4 -8 -8 3 -10 2
-17 -2 -17 -5 0 -11 7 -15 15 -3 8 -1 15 5 15 6 0 7 5 4 10 -10 16 1 11 16 -7z
m679 -13 c0 -5 -4 -10 -10 -10 -5 0 -10 5 -10 10 0 6 5 10 10 10 6 0 10 -4 10
-10z m-22 -35 c-3 -3 -9 2 -12 12 -6 14 -5 15 5 6 7 -7 10 -15 7 -18z m-4192
-54 c-5 -12 -3 -12 8 3 14 18 15 18 13 -3 -1 -11 -5 -21 -10 -21 -4 0 -5 -6 0
-12 4 -7 8 -22 10 -33 1 -11 -1 -14 -3 -7 -8 18 -24 4 -18 -16 5 -14 4 -15 -5
-2 -7 11 -5 20 7 34 14 15 14 18 2 14 -12 -4 -15 3 -15 32 0 21 4 36 8 33 5
-3 6 -12 3 -22z m4220 7 c4 -6 3 -8 -4 -4 -6 3 -13 2 -16 -3 -3 -5 1 -11 9
-15 16 -6 20 -32 6 -40 -5 -3 -15 2 -22 12 -13 15 -12 16 4 3 15 -11 17 -11
17 2 0 8 -7 18 -16 21 -13 5 -14 9 -4 21 15 18 17 18 26 3z m-4210 -157 c0
-17 -3 -28 -6 -26 -5 3 -6 38 -1 53 4 10 7 -3 7 -27z m691 -87 c2 -10 5 -24 5
-31 1 -6 12 -16 25 -22 13 -6 21 -16 18 -22 -4 -6 2 -13 14 -16 12 -3 21 -13
21 -24 0 -17 6 -21 26 -18 14 2 23 -26 11 -33 -9 -6 -9 -8 1 -8 7 0 11 -4 7
-9 -3 -5 -1 -13 5 -16 6 -4 9 -3 8 2 -2 4 2 9 7 10 6 0 9 -3 7 -8 -1 -5 9 -14
24 -19 14 -6 23 -14 20 -19 -8 -12 21 -34 34 -26 6 4 10 3 9 -2 -4 -21 3 -31
21 -36 11 -3 19 -11 18 -18 -2 -8 7 -15 20 -17 14 -2 22 -10 22 -23 0 -18 14
-23 58 -22 16 1 15 -2 -5 -23 -17 -17 -17 -17 5 -12 12 3 22 2 22 -2 0 -5 9
-7 19 -5 13 2 18 -2 16 -13 -1 -11 7 -19 24 -22 14 -3 26 -10 26 -17 0 -6 3
-15 8 -19 4 -4 7 1 7 12 0 15 4 12 15 -10 8 -15 12 -32 9 -37 -3 -5 5 -9 18
-8 13 0 17 3 11 6 -7 2 -13 10 -13 16 0 7 4 7 13 -1 6 -7 12 -23 12 -35 0 -15
6 -22 18 -21 12 1 17 -6 17 -26 0 -23 4 -27 20 -23 16 4 20 0 20 -21 0 -24 2
-26 23 -15 12 6 19 8 15 4 -11 -11 10 -45 27 -45 9 0 15 -10 15 -26 0 -14 4
-22 10 -19 5 3 16 2 24 -2 14 -8 16 -12 16 -32 0 -5 9 -7 19 -4 16 4 19 1 14
-16 -4 -17 -1 -21 20 -21 14 0 29 -5 33 -12 5 -7 3 -8 -6 -3 -8 5 -11 3 -8 -6
3 -8 9 -14 14 -14 5 0 14 -3 19 -6 6 -4 18 -5 28 -4 9 2 15 -1 11 -6 -3 -5 -9
-7 -13 -5 -4 3 -8 -1 -8 -8 0 -8 6 -12 14 -9 7 3 13 1 13 -5 0 -5 8 -9 17 -8
10 0 18 -6 18 -14 0 -8 10 -16 23 -18 19 -3 26 -12 24 -32 0 -3 9 -7 20 -7 23
-2 40 -22 31 -37 -3 -5 -1 -6 5 -2 6 4 9 14 6 24 -4 12 -1 11 13 -5 10 -12 28
-24 41 -26 12 -2 28 -10 35 -17 10 -12 9 -12 -5 -1 -13 9 -18 10 -18 2 0 -14
30 -27 74 -30 5 -1 6 -4 3 -8 -4 -3 -1 -16 7 -27 12 -20 11 -21 -16 -23 -25
-1 -27 1 -12 12 13 9 14 14 4 20 -9 5 -11 4 -6 -3 5 -8 -6 -12 -36 -11 -62 2
-70 0 -62 -12 4 -7 1 -10 -7 -7 -8 3 -13 11 -12 17 2 6 -2 11 -7 11 -14 0 -13
-15 3 -28 11 -9 46 -17 57 -12 13 6 170 4 170 -2 0 -3 13 -5 30 -3 31 4 44 -4
32 -20 -7 -10 -18 -12 -134 -17 -46 -2 -68 -7 -68 -15 0 -7 5 -13 11 -13 5 0
8 4 5 8 -3 5 2 9 10 9 10 0 12 -3 4 -11 -6 -6 -45 -12 -88 -13 -253 -6 -252
-6 -239 -23 11 -13 10 -13 -7 0 -13 10 -46 16 -105 17 -181 3 -183 4 -178 24
4 15 1 18 -18 15 -26 -5 -44 22 -23 35 22 14 113 6 110 -9 -1 -8 2 -11 8 -7 6
3 7 11 4 17 -5 7 -2 9 8 6 8 -4 21 -2 28 2 8 5 22 4 32 -1 12 -7 18 -6 18 1 0
7 6 8 18 2 9 -5 24 -7 32 -4 12 4 13 2 3 -9 -7 -7 -13 -17 -13 -23 0 -5 7 -1
16 10 15 19 16 19 10 -1 -5 -19 -5 -19 7 -2 18 28 39 54 32 40 -3 -7 -1 -13 4
-13 6 0 11 5 11 11 0 8 4 9 13 0 8 -6 17 -8 20 -4 4 3 7 1 7 -7 0 -10 3 -10
15 0 12 10 18 10 32 -1 11 -9 14 -10 9 -2 -5 10 2 11 26 8 18 -3 40 -7 48 -8
15 -2 20 4 20 25 0 6 -7 3 -15 -8 -12 -15 -14 -16 -9 -2 5 15 0 17 -38 16 -23
-1 -50 1 -58 3 -9 2 -14 -2 -12 -9 1 -8 -3 -12 -10 -9 -7 2 -12 11 -10 18 3
11 1 11 -8 2 -8 -7 -22 -8 -40 -3 -21 6 -30 4 -34 -6 -3 -8 -11 -14 -17 -14
-8 0 -8 4 -1 12 8 10 -1 13 -41 13 -29 0 -58 -4 -66 -9 -9 -6 -12 -5 -7 2 4 7
-4 10 -21 10 -16 0 -54 0 -87 1 -51 1 -57 3 -52 18 5 16 4 16 -6 3 -16 -20
-50 -20 -55 0 -4 13 -3 13 7 0 10 -13 11 -13 7 0 -2 9 -16 15 -33 15 -24 1
-30 6 -34 30 -4 20 -8 26 -13 17 -12 -18 -27 -5 -22 18 3 14 -2 20 -15 20 -10
0 -21 7 -24 16 -5 12 -3 14 7 8 7 -5 3 0 -10 11 -13 12 -23 25 -23 30 0 6 5 3
11 -5 9 -13 10 -13 6 0 -2 8 -10 15 -18 15 -8 0 -14 6 -14 13 0 8 -8 20 -18
27 -10 7 -21 29 -24 49 -3 19 -8 35 -12 34 -20 -2 -30 4 -25 16 3 7 -2 20 -10
29 -18 17 -21 32 -6 22 6 -3 7 1 4 10 -5 13 -9 13 -22 3 -13 -11 -15 -9 -10
15 3 15 1 30 -4 33 -4 3 -5 10 -2 16 5 7 1 9 -9 5 -12 -4 -14 -2 -10 10 5 12
3 14 -7 8 -10 -6 -12 -3 -8 13 4 12 2 22 -2 22 -4 0 -6 9 -3 20 4 16 2 19 -11
14 -16 -6 -17 -5 -22 51 -1 17 -3 33 -4 38 -1 4 -3 13 -4 20 -1 6 -10 11 -19
9 -16 -3 -17 0 -7 17 6 13 7 21 1 21 -5 0 -10 8 -10 18 0 36 -9 72 -22 88 -16
20 -20 35 -22 100 -1 38 -5 50 -15 47 -9 -4 -9 -9 -2 -18 7 -8 6 -12 -3 -12
-19 0 -17 29 2 45 15 12 15 13 0 9 -14 -5 -16 4 -16 57 0 35 -3 68 -7 74 -5 8
-1 9 15 4 12 -5 24 -17 26 -28z m-532 -114 c-1 -11 -4 -22 -7 -25 -4 -5 -4 34
1 43 4 8 7 -1 6 -18z m-2 -55 c-3 -9 -8 -14 -10 -11 -3 3 -2 9 2 15 9 16 15
13 8 -4z m2288 -38 c-10 -9 -11 -8 -5 6 3 10 9 15 12 12 3 -3 0 -11 -7 -18z
m1353 7 c3 -8 2 -12 -4 -9 -6 3 -10 10 -10 16 0 14 7 11 14 -7z m256 -36 c0
-5 -5 -6 -12 -2 -7 5 -8 3 -2 -7 16 -26 14 -39 -5 -27 -21 13 -17 60 5 51 8
-3 14 -9 14 -15z m-2335 2 c-3 -5 -12 -10 -18 -10 -7 0 -6 4 3 10 19 12 23 12
15 0z m-1800 -30 c-3 -5 -1 -10 6 -10 7 0 10 -3 6 -6 -9 -9 -28 6 -22 17 4 5
8 9 11 9 3 0 2 -4 -1 -10z m4096 -6 c15 -14 15 -18 2 -44 -8 -17 -11 -35 -8
-41 4 -6 -2 -13 -14 -16 -19 -5 -25 -22 -24 -70 0 -7 -8 -9 -21 -6 -11 2 -26
5 -33 5 -7 1 -10 5 -7 10 3 4 13 4 24 -2 13 -7 19 -6 24 5 3 8 0 14 -7 12 -7
-1 -12 10 -13 25 -1 18 4 27 15 27 50 2 51 3 30 29 -12 15 -16 29 -10 36 4 6
7 19 6 29 -4 21 13 22 36 1z m-1940 -11 c12 -16 12 -17 -2 -5 -9 7 -25 10 -35
6 -16 -5 -16 -4 -4 5 20 15 25 14 41 -6z m-1366 -3 c3 -5 1 -10 -4 -10 -6 0
-11 5 -11 10 0 6 2 10 4 10 3 0 8 -4 11 -10z m13 -32 c-2 -6 -10 -13 -16 -14
-7 -1 -8 0 -2 3 5 2 8 9 4 14 -3 5 0 9 6 9 7 0 10 -5 8 -12z m3242 -23 c5 3
12 0 16 -6 4 -8 3 -9 -4 -5 -7 4 -12 2 -12 -4 0 -6 -4 -8 -10 -5 -5 3 -10 14
-9 23 0 11 2 12 6 4 2 -6 9 -10 13 -7z m-74 -7 c-2 -16 -17 -19 -36 -6 -12 8
-12 9 2 4 10 -3 20 -1 23 4 8 14 14 12 11 -2z m-62 -19 c-4 -8 1 -9 16 -4 19
6 22 4 17 -10 -4 -9 -7 -23 -7 -31 0 -10 -5 -12 -12 -8 -10 6 -10 5 0 -8 10
-12 10 -18 -2 -27 -11 -9 -15 -9 -19 1 -2 7 -5 1 -6 -14 -1 -16 -3 -39 -4 -52
-2 -18 -5 -22 -14 -14 -7 6 -10 15 -6 22 3 6 2 7 -3 3 -10 -9 -11 -14 -13 -53
-1 -19 -5 -25 -16 -20 -10 4 -15 -1 -15 -14 0 -11 -4 -20 -9 -20 -5 0 -7 -9
-4 -20 4 -16 0 -20 -17 -20 -17 0 -21 -4 -17 -20 4 -16 0 -20 -20 -20 -13 0
-21 -4 -18 -10 3 -5 2 -16 -2 -24 -8 -14 -12 -16 -33 -16 -5 0 -10 -9 -10 -20
0 -11 -3 -19 -7 -19 -20 3 -34 -2 -28 -10 7 -12 -29 -33 -39 -24 -3 3 -6 -3
-6 -15 0 -15 -6 -22 -18 -22 -10 0 -27 -7 -38 -16 -17 -14 -17 -15 -1 -10 11
3 16 2 12 -4 -3 -6 -24 -10 -45 -10 -29 0 -43 -6 -54 -22 -9 -12 -16 -20 -16
-16 0 4 -13 3 -29 -2 -15 -4 -35 -4 -42 1 -8 5 -10 9 -5 9 5 0 3 7 -4 15 -16
20 -44 20 -37 0 9 -22 -10 -28 -23 -8 -8 14 -10 14 -9 3 3 -31 -14 -60 -35
-61 -11 -1 -36 -2 -55 -3 -21 0 -36 -7 -38 -16 -4 -13 -3 -13 7 0 10 13 11 13
7 0 -3 -11 -20 -15 -70 -16 -60 -1 -66 1 -54 15 11 14 10 15 -7 1 -15 -12 -50
-15 -151 -16 -115 0 -132 2 -130 15 1 9 11 17 23 19 11 2 26 11 34 20 12 16
11 16 -6 2 -17 -13 -19 -13 -14 0 3 8 13 16 24 16 10 1 24 3 29 4 6 1 13 2 18
1 4 0 7 6 7 15 0 8 5 12 10 9 6 -4 7 -11 4 -17 -4 -7 -2 -8 5 -4 16 10 -7 39
-26 32 -7 -3 -13 -1 -13 5 0 6 -7 6 -20 -1 -11 -6 -26 -8 -32 -4 -7 5 -9 2 -5
-9 6 -17 -24 -33 -55 -28 -10 1 -26 -3 -35 -9 -15 -9 -14 -10 7 -5 17 4 21 3
11 -3 -8 -6 -10 -15 -5 -23 6 -11 4 -12 -7 -4 -8 6 -44 10 -81 9 -63 -1 -72 2
-70 26 0 3 -16 6 -36 7 -86 2 -129 9 -129 19 0 6 6 11 13 11 7 0 10 -5 7 -11
-3 -6 -3 -8 1 -4 15 13 6 23 -21 24 -50 1 -104 15 -98 25 4 5 12 6 18 3 7 -4
8 -3 4 2 -9 9 -13 10 -65 12 -24 2 -31 6 -26 15 6 9 4 9 -8 -1 -10 -8 -19 -9
-22 -3 -4 5 1 14 11 19 13 8 9 10 -18 11 -60 1 -70 4 -65 17 5 14 -14 24 -45
24 -14 0 -18 4 -13 13 6 9 4 9 -8 -1 -13 -10 -17 -10 -22 3 -3 9 -2 13 3 10 5
-3 13 -1 16 5 4 6 3 10 -2 9 -4 -1 -21 -1 -37 0 -21 1 -27 5 -22 17 4 10 2 13
-7 8 -8 -5 -9 -4 -2 4 6 7 80 12 198 13 149 3 187 6 187 17 0 7 -5 10 -12 6
-7 -5 -8 -3 -3 5 5 9 10 10 18 2 13 -13 30 -15 23 -2 -3 4 20 9 52 10 90 4
106 7 110 22 3 11 1 11 -7 -1 -6 -8 -11 -10 -11 -4 0 19 12 24 33 13 10 -6 17
-7 14 -2 -3 5 24 8 61 8 48 -1 67 -5 70 -16 3 -11 1 -11 -7 1 -8 11 -11 12
-11 2 0 -8 -5 -10 -12 -5 -7 4 -19 8 -27 10 -10 1 -11 -1 -2 -10 17 -17 288
-17 288 0 0 7 -5 9 -11 5 -19 -12 -40 -12 -28 0 6 6 67 13 139 15 238 8 222 6
213 23 -7 13 -1 16 41 15 27 0 49 3 49 8 0 4 9 3 20 -3 14 -8 20 -8 20 0 0 7
8 9 19 5 11 -3 23 0 27 6 4 7 3 9 -2 6 -6 -3 -16 -2 -24 3 -12 7 -11 9 5 10
60 1 109 11 116 22 5 7 9 8 9 3 0 -6 10 -11 23 -12 12 0 16 1 10 4 -7 3 -13
12 -13 20 0 13 2 13 17 2 9 -8 14 -9 11 -4 -4 6 2 11 12 11 10 0 17 -3 14 -7
-2 -4 4 -13 14 -20 15 -12 16 -12 5 1 -8 10 -9 21 -3 30 6 8 10 10 10 4 0 -6
7 -11 15 -11 8 0 12 4 9 9 -3 4 0 8 5 8 6 0 11 7 11 16 0 10 6 14 15 10 8 -3
15 -1 15 4 0 5 11 7 25 4 19 -3 23 -1 19 11 -4 9 0 15 10 16 9 1 21 3 26 4 6
1 20 3 33 5 12 1 17 4 10 6 -19 8 -4 33 17 29 10 -2 21 3 24 11 3 8 8 14 11
14 4 0 3 -5 -1 -11z m-3067 -74 c0 -8 -4 -15 -9 -15 -10 0 -11 14 -1 23 9 10
10 9 10 -8z m2528 5 c3 -5 1 -10 -4 -10 -6 0 -11 5 -11 10 0 6 2 10 4 10 3 0
8 -4 11 -10z m642 -52 c2 -20 1 -20 -13 -2 -9 11 -13 14 -10 7 4 -6 3 -14 -2
-17 -4 -2 -8 6 -8 18 0 30 31 24 33 -6z m-1013 -33 c3 -8 1 -15 -4 -15 -6 0
-10 7 -10 15 0 8 2 15 4 15 2 0 6 -7 10 -15z m1046 -70 c-7 -9 -15 -13 -19
-10 -3 3 1 10 9 15 21 14 24 12 10 -5z m-775 -5 c3 -6 -1 -7 -9 -4 -18 7 -21
14 -7 14 6 0 13 -4 16 -10z m-465 -27 c8 7 11 8 7 1 -5 -8 8 -11 39 -9 25 2
43 0 39 -3 -12 -12 -132 -8 -132 5 0 8 6 9 17 3 11 -6 22 -5 30 3z m114 -8
c-4 -8 -8 -15 -10 -15 -2 0 -4 7 -4 15 0 8 4 15 10 15 5 0 7 -7 4 -15z m-1294
-7 c0 -6 -3 -8 -7 -5 -3 4 -12 2 -20 -5 -11 -8 -12 -7 -7 6 7 18 34 22 34 4z
m930 8 c0 -3 -4 -8 -10 -11 -5 -3 -10 -1 -10 4 0 6 5 11 10 11 6 0 10 -2 10
-4z m-906 -21 c-4 -8 -11 -15 -16 -15 -6 0 -5 6 2 15 7 8 14 15 16 15 2 0 1
-7 -2 -15z m164 -14 c2 -1 0 -6 -4 -12 -4 -7 -9 -8 -13 -1 -4 6 -11 4 -19 -4
-11 -12 -9 -13 10 -11 32 5 74 -8 70 -22 -1 -6 3 -13 10 -15 7 -2 22 -7 33
-12 11 -4 23 -6 27 -6 5 1 7 -1 7 -6 -3 -20 3 -30 18 -28 10 0 18 -6 18 -14 0
-8 10 -16 21 -18 12 -2 24 -12 27 -24 3 -11 10 -17 16 -14 5 4 19 -4 31 -16
19 -21 21 -21 15 -3 -5 18 -4 18 11 -2 9 -13 25 -23 35 -23 13 0 19 -7 19 -21
0 -11 5 -17 10 -14 6 4 7 11 4 17 -4 7 -2 8 5 4 6 -4 9 -12 6 -17 -6 -9 7 -13
36 -10 10 1 16 -5 15 -15 -1 -13 9 -18 34 -21 19 -3 37 -9 38 -14 2 -5 9 -6
14 -3 6 4 9 3 6 -2 -3 -5 4 -18 15 -29 11 -11 17 -15 14 -9 -4 7 3 12 18 12
27 0 32 -10 13 -25 -32 -24 -100 -5 -78 22 8 9 -2 11 -40 9 -27 -1 -53 2 -56
7 -3 5 -10 6 -16 3 -7 -4 -8 -2 -4 5 6 8 12 9 20 2 9 -8 13 -7 13 2 0 7 -10
13 -21 14 -53 2 -86 8 -86 16 0 4 -6 5 -12 1 -9 -5 -9 -2 1 9 12 15 10 17 -15
18 -16 1 -39 0 -52 -1 -21 -1 -22 1 -13 19 10 18 8 20 -31 23 -34 2 -43 7 -42
21 1 13 -6 17 -28 17 -25 0 -29 3 -25 20 3 11 2 18 -3 15 -12 -7 -70 6 -65 15
6 10 -20 32 -28 24 -8 -9 -27 32 -19 41 4 5 2 5 -5 1 -7 -4 -10 -12 -7 -20 3
-7 -1 -13 -9 -13 -8 0 -14 7 -13 16 1 10 -8 17 -22 19 -18 3 -23 8 -19 23 4
15 0 19 -17 19 -28 0 -36 8 -29 27 5 12 21 14 82 10 42 -3 77 -6 79 -6z
m-1398 -169 c0 -5 -7 -9 -15 -9 -8 0 -12 4 -9 9 3 4 9 8 15 8 5 0 9 -4 9 -8z
m477 -77 c0 -8 -4 -15 -8 -15 -11 0 -20 16 -12 24 11 11 20 7 20 -9z m-397 -5
c0 -5 -7 -7 -15 -4 -8 4 -15 8 -15 10 0 2 7 4 15 4 8 0 15 -4 15 -10z m2997
-5 c0 -8 -4 -12 -9 -9 -5 3 -6 10 -3 15 9 13 12 11 12 -6z m-943 -41 c3 -8 2
-12 -4 -9 -6 3 -10 10 -10 16 0 14 7 11 14 -7z m793 -6 c-3 -8 -6 -5 -6 6 -1
11 2 17 5 13 3 -3 4 -12 1 -19z m43 18 c0 -2 -7 -6 -15 -10 -8 -3 -15 -1 -15
4 0 6 7 10 15 10 8 0 15 -2 15 -4z m-2464 -40 c0 -14 -5 -21 -9 -17 -4 4 -5
15 -1 24 9 24 12 21 10 -7z m-273 -41 c-3 -9 -8 -14 -10 -11 -3 3 -2 9 2 15 9
16 15 13 8 -4z m218 -2 c13 -16 12 -17 -3 -4 -16 12 -22 9 -20 -9 0 -3 -8 -7
-19 -7 -18 -2 -18 0 3 17 13 11 24 19 24 20 1 0 8 -8 15 -17z m1540 4 c-6 -8
-8 -17 -4 -20 3 -4 -2 -7 -12 -7 -17 0 -17 1 0 20 20 22 34 28 16 7z m-1536
-36 c-3 -5 -1 -12 4 -15 5 -3 11 0 14 7 4 11 51 15 86 8 2 -1 -2 -7 -8 -14 -8
-10 -7 -14 4 -15 8 -1 21 -3 29 -4 8 -1 14 -10 13 -20 -1 -20 -6 -21 -32 -12
-13 5 -14 8 -3 15 10 7 9 9 -4 9 -9 0 -18 -3 -21 -7 -2 -5 -3 -3 -1 3 1 6 -2
17 -7 25 -7 11 -9 11 -9 1 0 -15 -47 -14 -67 1 -12 8 -9 27 3 27 3 0 3 -4 -1
-9z m1176 -48 c2 1 3 0 1 -2 -7 -11 -31 -8 -36 5 -4 11 -1 12 13 5 10 -6 20
-9 22 -8z m-506 -11 c-3 -3 -11 0 -18 7 -9 10 -8 11 6 5 10 -3 15 -9 12 -12z
m357 4 c7 4 8 2 4 -5 -9 -13 -26 -5 -25 12 0 9 2 8 6 -1 2 -6 10 -9 15 -6z
m-309 -11 c-3 -9 -8 -14 -10 -11 -3 3 -2 9 2 15 9 16 15 13 8 -4z m-698 -14
c3 -5 2 -12 -3 -15 -5 -3 -9 1 -9 9 0 17 3 19 12 6z m1310 -52 c-4 -5 -1 -10
4 -10 36 -4 45 -2 48 11 4 13 3 13 -6 0 -10 -13 -11 -13 -11 0 0 13 -1 13 -11
0 -8 -12 -10 -12 -7 -1 6 22 40 22 45 0 4 -13 15 -19 37 -20 56 -1 77 -6 89
-18 9 -10 8 -11 -8 -5 -11 4 -17 4 -13 -1 8 -8 60 -14 172 -19 42 -1 61 -7 64
-17 3 -11 2 -11 -6 -1 -8 11 -10 11 -15 0 -4 -11 19 -14 129 -13 74 0 134 -4
134 -8 0 -5 4 -6 9 -2 6 3 9 -3 8 -13 -1 -13 -8 -19 -22 -17 -11 0 -26 -4 -34
-9 -8 -6 -17 -10 -20 -8 -3 2 -7 -2 -9 -10 -2 -9 0 -8 7 2 10 13 11 13 11 0 0
-13 1 -13 11 0 9 13 10 13 6 0 -2 -8 -9 -16 -15 -16 -7 -1 -13 -3 -14 -4 -2
-1 -16 -3 -31 -4 -15 -2 -33 -9 -40 -16 -9 -10 -9 -11 0 -6 6 3 14 3 17 -2 2
-4 -5 -8 -17 -9 -80 -3 -96 -7 -86 -24 7 -14 4 -17 -21 -15 -17 1 -30 -1 -30
-5 0 -4 -9 -5 -20 -2 -13 4 -29 -2 -43 -15 -12 -11 -38 -22 -57 -23 -19 -2
-41 -8 -49 -13 -11 -8 -13 -8 -8 0 3 6 0 11 -8 11 -9 0 -14 -7 -13 -15 2 -11
-6 -16 -27 -16 -16 -1 -29 4 -28 10 1 6 -5 11 -12 11 -11 0 -12 -4 -4 -13 9
-11 -19 -13 -155 -13 -92 1 -169 6 -172 11 -4 5 -10 5 -17 0 -15 -12 -48 -12
-41 0 3 5 10 6 15 3 5 -4 9 -2 9 4 0 17 -25 18 -38 2 -11 -14 -11 -14 -6 2 5
15 -1 17 -46 17 -38 0 -49 3 -44 13 6 9 4 9 -8 -1 -13 -10 -17 -10 -22 3 -3 9
-2 13 3 10 5 -3 12 -2 15 3 3 5 -18 9 -46 9 -28 1 -56 7 -62 14 -8 9 -7 10 4
4 13 -8 13 -6 1 8 -7 9 -17 15 -21 12 -14 -8 -71 17 -67 29 3 8 -8 13 -32 15
-34 2 -71 21 -41 21 18 0 4 13 -18 16 -35 5 -52 10 -59 19 -4 4 -2 5 5 1 17
-10 15 4 -5 26 -14 16 -14 18 -1 13 8 -3 21 -16 27 -28 6 -12 9 -14 7 -4 -5
15 9 23 37 18 10 -2 9 13 -3 25 -7 7 -6 11 4 11 8 0 15 -3 14 -6 -2 -22 6 -29
37 -29 32 0 34 2 23 17 -12 14 -11 15 6 1 20 -16 106 -24 106 -9 0 4 -6 7 -12
5 -7 -1 -10 -1 -5 1 4 3 5 8 3 11 -2 4 42 8 97 9 173 4 246 8 254 16 4 5 0 5
-10 1 -13 -5 -16 -2 -11 10 6 17 24 17 36 1 5 -6 8 -5 8 3 0 8 18 12 55 12 49
0 55 2 55 21 0 11 5 17 10 14 6 -4 8 -11 5 -16z m-175 -27 c0 -15 -11 -21 -27
-15 -12 5 -12 7 -1 14 17 11 28 11 28 1z m400 -7 c0 -12 -19 -12 -23 0 -4 9
-1 12 9 8 7 -3 14 -7 14 -8z m-953 -31 c-3 -3 -12 -4 -19 -1 -8 3 -5 6 6 6 11
1 17 -2 13 -5z m30 -9 c0 -8 -4 -15 -9 -15 -10 0 -11 14 -1 23 9 10 10 9 10
-8z m182 12 c-2 -1 -11 -8 -21 -15 -12 -10 -18 -10 -24 -1 -4 7 -3 9 4 5 6 -3
13 -2 17 4 3 5 11 10 17 10 6 0 9 -1 7 -3z m976 -6 c3 -5 0 -13 -6 -17 -7 -4
-9 -3 -5 4 3 5 0 13 -6 15 -9 4 -10 6 -1 6 6 1 14 -3 18 -8z m145 -165 c0 -3
-4 -8 -10 -11 -5 -3 -10 -1 -10 4 0 6 5 11 10 11 6 0 10 -2 10 -4z m-274 -51
c-8 -8 -18 -15 -22 -15 -3 0 -1 7 6 15 7 8 17 15 22 15 5 0 3 -7 -6 -15z m27
-70 c-3 -9 -8 -14 -10 -11 -3 3 -2 9 2 15 9 16 15 13 8 -4z"/>
<path d="M2791 4634 c0 -11 3 -14 6 -6 3 7 2 16 -1 19 -3 4 -6 -2 -5 -13z"/>
<path d="M2946 4562 c-3 -5 1 -9 9 -9 8 0 12 4 9 9 -3 4 -7 8 -9 8 -2 0 -6 -4
-9 -8z"/>
<path d="M3075 4560 c-3 -5 -1 -10 4 -10 6 0 11 5 11 10 0 6 -2 10 -4 10 -3 0
-8 -4 -11 -10z"/>
<path d="M3445 4543 c2 -10 4 -22 5 -28 0 -5 5 -2 11 8 10 17 5 37 -11 37 -4
0 -7 -8 -5 -17z"/>
<path d="M3355 4479 c-4 -6 -5 -12 -2 -15 2 -3 7 2 10 11 7 17 1 20 -8 4z"/>
<path d="M3871 3484 c0 -11 3 -14 6 -6 3 7 2 16 -1 19 -3 4 -6 -2 -5 -13z"/>
<path d="M1846 4561 c-3 -4 6 -7 19 -7 14 0 22 2 19 5 -8 8 -34 10 -38 2z"/>
<path d="M2307 4483 c-3 -5 6 -9 20 -10 19 -1 22 1 12 8 -17 11 -26 11 -32 2z"/>
<path d="M2862 4127 c-8 -10 -6 -13 11 -14 12 0 16 1 9 4 -6 3 -10 9 -6 14 8
14 -2 11 -14 -4z"/>
<path d="M3890 4474 c0 -8 5 -12 10 -9 6 4 8 11 5 16 -9 14 -15 11 -15 -7z"/>
<path d="M1586 4402 c-3 -5 1 -9 9 -9 8 0 12 4 9 9 -3 4 -7 8 -9 8 -2 0 -6 -4
-9 -8z"/>
<path d="M1771 4394 c0 -11 3 -14 6 -6 3 7 2 16 -1 19 -3 4 -6 -2 -5 -13z"/>
<path d="M1724 4316 c1 -19 31 -31 41 -16 3 4 15 6 28 3 22 -5 22 -5 2 11 -11
10 -14 15 -7 11 6 -3 12 -1 12 4 0 18 -22 12 -49 -11 -25 -23 -26 -23 -7 -1
18 21 18 22 -1 20 -13 -1 -20 -8 -19 -21z"/>
<path d="M1700 4295 c0 -16 -2 -17 -10 -5 -5 8 -12 11 -16 7 -4 -3 -1 -14 7
-24 9 -11 10 -14 2 -9 -7 4 -13 2 -13 -3 0 -14 17 -14 25 -1 4 6 11 8 16 5 12
-8 11 16 -1 35 -8 12 -10 12 -10 -5z"/>
<path d="M1644 4275 c1 -8 6 -18 11 -22 4 -4 5 -2 1 5 -4 6 -2 12 4 12 6 0 8
5 5 10 -9 15 -24 12 -21 -5z"/>
<path d="M1570 4245 c-7 -9 -11 -17 -9 -20 3 -2 10 5 17 15 14 24 10 26 -8 5z"/>
<path d="M1605 4250 c3 -5 1 -10 -4 -10 -6 0 -11 -4 -11 -10 0 -5 10 -8 23 -6
12 3 26 5 31 5 5 1 3 8 -4 16 -14 17 -45 21 -35 5z"/>
<path d="M1527 4202 c5 -11 3 -13 -8 -7 -10 6 -11 5 -3 -4 12 -13 47 -4 41 12
-2 6 -10 11 -19 13 -11 1 -15 -3 -11 -14z"/>
<path d="M1570 4200 c0 -5 5 -10 10 -10 6 0 10 5 10 10 0 6 -4 10 -10 10 -5 0
-10 -4 -10 -10z"/>
<path d="M1470 4169 c0 -5 -4 -8 -9 -5 -5 3 -11 0 -14 -7 -3 -8 3 -13 17 -12
26 0 46 12 46 28 0 7 -5 4 -11 -5 -5 -10 -15 -18 -21 -18 -7 0 -6 5 2 15 9 10
9 15 1 15 -6 0 -11 -5 -11 -11z"/>
<path d="M1123 4105 c0 -11 -4 -29 -8 -40 -4 -11 -3 -15 2 -9 4 6 15 10 24 9
9 -2 16 4 16 11 0 8 -5 14 -10 14 -6 0 -2 9 8 20 18 20 18 20 -6 18 -18 -1
-25 -8 -26 -23z"/>
<path d="M1403 4115 c0 -7 6 -12 13 -12 7 0 11 4 8 8 -2 4 2 9 8 12 7 3 4 5
-8 4 -11 -1 -21 -6 -21 -12z"/>
<path d="M1359 4073 c-13 -16 -12 -17 4 -4 9 7 17 15 17 17 0 8 -8 3 -21 -13z"/>
<path d="M1090 4039 c0 -11 4 -18 9 -15 5 4 11 1 13 -6 3 -8 6 -7 10 3 4 9 -2
20 -13 27 -16 11 -19 9 -19 -9z"/>
<path d="M1690 4051 c0 -6 4 -13 10 -16 6 -3 7 1 4 9 -7 18 -14 21 -14 7z"/>
<path d="M1716 4047 c3 -10 9 -15 12 -12 3 3 0 11 -7 18 -10 9 -11 8 -5 -6z"/>
<path d="M1745 4050 c-3 -5 -5 -10 -3 -11 33 -8 38 -7 27 7 -14 17 -16 17 -24
4z"/>
<path d="M1787 4043 c3 -7 8 -13 12 -13 4 0 8 6 8 13 0 8 -6 14 -13 14 -7 0
-10 -6 -7 -14z"/>
<path d="M1850 4045 c0 -8 2 -15 4 -15 2 0 6 7 10 15 3 8 1 15 -4 15 -6 0 -10
-7 -10 -15z"/>
<path d="M1905 4050 c-8 -13 9 -20 24 -11 10 6 9 10 -3 14 -8 3 -18 2 -21 -3z"/>
<path d="M1820 4039 c0 -5 5 -7 10 -4 6 3 10 8 10 11 0 2 -4 4 -10 4 -5 0 -10
-5 -10 -11z"/>
<path d="M1875 4040 c-3 -5 -1 -10 4 -10 6 0 11 5 11 10 0 6 -2 10 -4 10 -3 0
-8 -4 -11 -10z"/>
<path d="M3966 4273 c-6 -14 -5 -15 5 -6 7 7 10 15 7 18 -3 3 -9 -2 -12 -12z"/>
<path d="M4090 4200 c-9 -6 -10 -10 -3 -10 6 0 15 5 18 10 8 12 4 12 -15 0z"/>
<path d="M3935 4120 c-3 -6 1 -7 9 -4 18 7 21 14 7 14 -6 0 -13 -4 -16 -10z"/>
<path d="M4050 4004 c0 -9 -5 -12 -12 -8 -7 5 -8 3 -4 -5 5 -7 14 -10 22 -7 8
3 21 -5 30 -19 11 -16 24 -23 42 -22 33 3 38 33 5 31 -13 -1 -23 4 -23 10 0 6
-4 4 -10 -4 -7 -11 -11 -9 -19 13 -11 29 -31 37 -31 11z"/>
<path d="M4164 3915 c0 -19 3 -22 17 -14 20 10 28 2 23 -24 -1 -12 2 -17 11
-13 16 6 39 -19 31 -32 -3 -5 6 -8 20 -6 19 2 24 -1 20 -12 -3 -8 6 -20 25
-29 33 -18 44 -14 52 14 3 14 0 19 -12 16 -9 -2 -25 3 -36 11 -12 9 -14 14 -5
14 7 0 10 3 6 8 -7 7 -11 8 -37 11 -5 0 -8 5 -4 10 7 12 -25 30 -41 24 -12 -4
-33 17 -31 31 1 5 -7 10 -18 12 -16 3 -21 -2 -21 -21z m96 -45 c-9 -5 -6 -10
9 -15 12 -3 19 -11 16 -16 -7 -11 -38 17 -41 37 -1 7 4 10 13 7 11 -4 12 -8 3
-13z m55 -60 c-3 -5 -1 -10 6 -10 7 0 10 -2 7 -5 -3 -3 -13 -2 -22 1 -14 5
-15 9 -4 15 17 11 20 11 13 -1z"/>
<path d="M4123 3693 c1 -26 23 -38 33 -20 4 7 3 8 -1 4 -5 -4 -15 3 -21 15
l-13 23 2 -22z"/>
<path d="M4186 3628 c6 -21 5 -22 -11 -8 -17 14 -17 14 -4 -7 19 -31 25 -29
25 7 0 17 -4 30 -8 30 -5 0 -6 -10 -2 -22z"/>
<path d="M4200 3567 c0 -7 7 -22 16 -33 15 -18 15 -18 5 3 -17 33 -13 38 9 12
17 -21 19 -21 13 -4 -10 32 -43 48 -43 22z"/>
<path d="M4443 3555 c0 -7 6 -11 14 -8 7 3 13 6 13 8 0 2 -6 5 -13 8 -8 3 -14
-1 -14 -8z"/>
<path d="M4264 3525 c-4 -8 -9 -13 -13 -11 -4 3 -7 -6 -7 -20 0 -13 3 -24 7
-24 4 0 6 -11 5 -25 -2 -13 1 -22 6 -19 5 3 7 13 4 21 -4 9 -1 13 6 10 7 -2
12 -13 12 -25 -1 -13 3 -19 10 -15 6 4 5 0 -2 -9 -13 -17 -1 -35 17 -24 12 7
18 -12 16 -46 -2 -29 23 -48 36 -27 9 16 -6 65 -20 62 -10 -3 -15 10 -12 30 0
4 -3 7 -9 7 -5 0 -9 10 -7 23 1 13 -3 21 -10 20 -7 -2 -15 8 -19 22 -3 14 -10
22 -15 19 -12 -7 -11 3 1 27 6 10 8 19 5 19 -3 0 -8 -7 -11 -15z"/>
<path d="M4446 3518 c3 -5 10 -6 15 -3 13 9 11 12 -6 12 -8 0 -12 -4 -9 -9z"/>
<path d="M4453 3474 c0 -17 2 -22 7 -13 5 6 6 18 3 26 -8 19 -10 16 -10 -13z"/>
<path d="M4446 3334 c-5 -14 -4 -15 9 -4 17 14 19 20 6 20 -5 0 -12 -7 -15
-16z"/>
<path d="M4095 3300 c3 -5 8 -10 11 -10 2 0 4 5 4 10 0 6 -5 10 -11 10 -5 0
-7 -4 -4 -10z"/>
<path d="M4330 3281 c0 -6 4 -12 8 -15 5 -3 9 1 9 9 0 8 -4 15 -9 15 -4 0 -8
-4 -8 -9z"/>
<path d="M4104 3230 c0 -13 4 -16 10 -10 7 7 7 13 0 20 -6 6 -10 3 -10 -10z"/>
<path d="M4430 3239 c0 -5 5 -7 10 -4 6 3 10 8 10 11 0 2 -4 4 -10 4 -5 0 -10
-5 -10 -11z"/>
<path d="M4090 3139 c0 -5 5 -7 10 -4 6 3 10 8 10 11 0 2 -4 4 -10 4 -5 0 -10
-5 -10 -11z"/>
<path d="M4364 2929 c-4 -7 -3 -9 4 -5 5 3 13 0 15 -6 4 -9 6 -10 6 -1 1 17
-16 25 -25 12z"/>
<path d="M3086 4082 c-3 -5 1 -9 9 -9 8 0 12 4 9 9 -3 4 -7 8 -9 8 -2 0 -6 -4
-9 -8z"/>
<path d="M946 3673 c-6 -14 -5 -15 5 -6 7 7 10 15 7 18 -3 3 -9 -2 -12 -12z"/>
<path d="M733 3555 c0 -8 4 -15 9 -15 4 0 8 7 8 15 0 8 -4 15 -8 15 -5 0 -9
-7 -9 -15z"/>
<path d="M2260 3670 c-13 -8 -12 -10 3 -10 9 0 17 5 17 10 0 12 -1 12 -20 0z"/>
<path d="M3130 3560 c-9 -6 -10 -10 -3 -10 6 0 15 5 18 10 8 12 4 12 -15 0z"/>
<path d="M1738 2842 c3 -10 1 -13 -6 -8 -8 5 -10 2 -6 -8 3 -9 10 -16 16 -16
5 0 6 5 2 12 -4 6 -3 8 2 5 5 -3 10 2 10 12 0 10 -6 18 -12 18 -7 0 -10 -7 -6
-15z"/>
<path d="M1766 2845 c-3 -8 0 -17 6 -21 7 -5 8 -2 3 6 -6 9 -4 11 5 5 9 -6 11
-4 5 6 -8 12 -6 12 8 0 14 -11 17 -11 17 0 0 11 3 11 11 -1 8 -11 10 -12 7 -1
-5 19 -55 23 -62 6z"/>
<path d="M1844 2848 c-3 -4 -4 -8 -2 -9 19 -4 50 -6 40 -3 -6 3 -10 9 -8 13 3
4 -2 8 -10 8 -8 0 -17 -4 -20 -9z"/>
<path d="M1893 2846 c5 -15 64 -14 64 1 0 9 -4 10 -14 2 -7 -6 -13 -7 -13 -2
0 5 -9 9 -20 9 -11 0 -19 -5 -17 -10z"/>
<path d="M2289 2835 c-1 -16 -2 -16 -6 -3 -2 9 -13 16 -23 15 -10 -1 -16 -5
-14 -9 3 -5 10 -6 15 -3 5 4 9 1 9 -4 0 -6 -7 -11 -15 -11 -8 0 -15 -9 -15
-20 0 -13 -7 -20 -19 -20 -14 0 -19 -6 -16 -19 2 -11 -3 -22 -11 -25 -8 -3
-14 -11 -14 -18 0 -9 3 -9 11 2 9 13 10 13 6 0 -2 -8 -11 -14 -19 -14 -11 1
-15 -7 -14 -28 1 -16 -2 -32 -7 -35 -6 -3 -7 -1 -3 5 4 7 -1 10 -14 9 -24 -2
-24 -1 -2 -23 15 -16 15 -17 0 -12 -10 4 -19 1 -22 -9 -7 -18 12 -45 26 -37 6
4 6 -1 0 -13 -8 -15 -8 -20 1 -20 12 0 14 7 18 61 2 24 12 28 39 11 12 -7 13
-6 3 6 -10 12 -9 20 4 39 9 13 11 20 5 16 -7 -4 -12 -3 -12 3 0 5 17 15 37 22
31 10 34 13 19 19 -18 6 -18 7 -3 13 9 3 17 3 18 -1 0 -4 2 -15 4 -24 2 -10 0
-17 -3 -17 -22 3 -42 -2 -42 -12 0 -6 9 -8 23 -4 17 5 19 4 6 -4 -9 -6 -16
-26 -17 -47 -1 -21 -7 -41 -13 -45 -8 -5 -8 -8 2 -11 9 -3 6 -11 -10 -27 -12
-12 -20 -25 -17 -29 4 -3 12 3 19 13 12 15 14 15 14 1 0 -8 -8 -18 -17 -21
-12 -4 -17 -19 -19 -53 -5 -88 -7 -101 -14 -108 -3 -4 -5 3 -2 14 2 15 -1 19
-10 16 -8 -3 -11 -12 -8 -20 3 -8 0 -14 -6 -14 -18 0 -12 -29 9 -42 11 -7 20
-17 20 -22 0 -4 -6 -4 -12 1 -7 6 -20 9 -29 8 -14 -2 -16 4 -13 29 4 25 3 28
-6 13 -6 -9 -9 -21 -6 -26 3 -5 -2 -15 -11 -22 -14 -12 -15 -11 -9 11 5 17 4
21 -2 11 -8 -11 -10 -11 -15 0 -2 8 -4 3 -3 -11 l1 -25 141 1 c143 2 164 5
164 27 0 9 -2 9 -8 1 -8 -14 -72 -14 -72 -1 0 5 6 7 14 4 7 -3 20 3 29 14 9
10 12 20 7 20 -6 1 -16 2 -22 3 -17 1 -17 84 -1 105 11 13 13 13 11 1 -2 -8
-7 -19 -13 -23 -6 -5 -4 -7 4 -5 9 3 16 19 17 44 2 37 12 155 13 163 1 2 7 -1
14 -7 12 -10 19 35 21 139 0 14 6 26 13 26 10 0 10 -4 1 -16 -11 -14 -10 -14
4 -1 10 8 19 27 22 42 4 22 1 26 -15 25 -10 -1 -19 -5 -19 -10 0 -5 -5 -5 -12
0 -7 6 -32 9 -55 8 -23 -1 -40 2 -37 7 3 5 10 6 15 3 5 -4 9 0 9 7 0 10 3 9
11 -2 8 -12 10 -12 7 -1 -2 8 -16 15 -31 15 -21 1 -27 -3 -28 -19z m101 -189
c0 -3 -4 -8 -10 -11 -5 -3 -10 -1 -10 4 0 6 5 11 10 11 6 0 10 -2 10 -4z
m-124 -359 c4 -4 13 -2 21 5 11 8 12 7 7 -5 -6 -16 -28 -18 -51 -4 -6 4 -14 3
-18 -3 -4 -6 -11 -8 -16 -4 -5 3 -7 9 -5 13 6 10 52 8 62 -2z"/>
<path d="M2364 2848 c-6 -9 -2 -10 51 -12 26 -1 39 -5 38 -14 -3 -13 13 -17
21 -4 9 15 -12 35 -38 37 -14 0 -26 -3 -26 -7 0 -4 -5 -8 -11 -8 -5 0 -8 4 -5
8 3 5 -2 9 -10 9 -8 0 -17 -4 -20 -9z"/>
<path d="M2686 2844 c-5 -14 -4 -15 9 -4 17 14 19 20 6 20 -5 0 -12 -7 -15
-16z"/>
<path d="M2701 2837 c-18 -19 -47 -15 -36 4 3 5 -1 6 -10 2 -13 -5 -14 -7 -3
-14 10 -7 10 -9 -2 -10 -8 -1 -20 -1 -27 0 -7 1 -15 -9 -19 -23 -4 -18 -11
-23 -25 -21 -16 3 -19 0 -14 -15 4 -11 2 -20 -3 -20 -6 0 -8 -9 -5 -20 3 -12
0 -20 -6 -20 -7 0 -9 5 -5 13 6 9 5 9 -7 0 -20 -17 -19 -88 1 -88 8 0 15 -7
15 -15 0 -8 6 -21 13 -29 7 -7 9 -18 5 -25 -4 -7 1 -3 11 9 l19 20 -6 -22 c-3
-13 -1 -24 4 -24 5 -1 14 -3 19 -4 6 -1 19 -3 30 -4 11 0 20 -6 20 -12 0 -5
-5 -7 -12 -3 -7 4 -8 3 -4 -5 4 -6 13 -11 19 -10 36 4 57 -2 58 -18 0 -17 1
-17 7 -1 5 13 11 15 22 8 11 -7 11 -10 2 -10 -7 0 -10 -5 -7 -10 4 -6 10 -8
14 -6 13 8 32 -10 34 -32 1 -12 5 -22 9 -22 5 0 3 -10 -3 -22 -7 -13 -15 -30
-19 -38 -4 -8 -16 -13 -26 -12 -15 3 -16 1 -5 -12 16 -19 1 -21 -19 -3 -12 10
-12 9 -2 -5 9 -11 10 -18 2 -23 -5 -3 -10 -2 -10 4 0 7 -8 7 -25 1 -14 -5 -25
-6 -25 -1 0 4 -7 8 -15 8 -8 0 -15 -5 -15 -10 0 -6 -3 -7 -7 -3 -4 4 -8 15 -8
23 0 9 -8 17 -18 19 -34 5 -49 14 -44 27 5 14 -18 39 -27 29 -4 -3 -4 1 0 11
4 11 0 19 -10 23 -9 3 -15 14 -14 23 2 9 -3 15 -10 13 -10 -2 -10 2 -3 17 9
16 8 19 -6 17 -16 -3 -19 -15 -24 -83 -1 -18 -6 -33 -11 -33 -5 0 -6 6 -2 13
5 9 4 9 -6 0 -17 -15 -21 -55 -6 -46 6 4 5 0 -2 -9 -14 -18 -11 -53 6 -70 12
-12 13 -10 16 15 1 8 21 12 63 12 34 0 61 -2 61 -5 -1 -20 4 -30 13 -25 6 4 8
14 5 22 -4 8 -1 11 5 8 6 -4 8 -13 5 -21 -4 -11 13 -13 89 -11 81 1 94 4 90
17 -3 11 2 16 18 18 47 5 62 10 59 22 -1 6 7 14 18 17 19 5 24 14 21 41 -1 6
3 12 9 12 5 0 10 -4 10 -8 0 -5 7 -9 15 -9 11 0 12 4 4 13 -6 8 -6 14 0 18 5
4 6 18 2 34 -4 15 -4 39 0 54 7 27 -2 42 -26 43 -5 0 -10 10 -9 23 0 18 -5 22
-30 23 -17 1 -35 1 -39 0 -5 -1 -11 7 -14 18 -4 17 -25 24 -110 33 -6 1 -9 7
-6 15 3 7 0 13 -5 13 -6 0 -13 8 -15 18 -4 16 -5 16 -6 0 0 -10 -5 -18 -9 -18
-5 0 -8 27 -8 61 0 53 2 60 18 56 10 -3 18 -1 18 5 0 5 6 6 13 2 9 -6 9 -4 -1
8 -16 20 -7 25 38 22 47 -3 47 -3 30 -15 -10 -7 -11 -9 -2 -7 8 2 13 7 12 12
-2 10 20 26 35 26 6 0 3 -5 -5 -10 -12 -8 -12 -10 -1 -10 11 0 11 -3 1 -15
-11 -13 -8 -15 17 -15 25 0 30 -4 29 -22 -1 -14 5 -23 14 -23 10 0 17 -14 21
-45 3 -25 7 -41 7 -36 1 5 10 2 19 -5 11 -10 14 -10 9 -1 -4 6 -3 12 3 12 5 0
8 9 6 20 -3 15 1 20 13 18 12 -2 16 4 16 27 0 19 -5 29 -13 27 -7 -1 -10 2 -6
8 3 6 11 8 16 4 6 -3 9 10 8 35 -2 27 -6 37 -13 32 -6 -5 -29 -8 -52 -8 -22 0
-47 -4 -55 -8 -12 -8 -12 -6 0 8 21 26 7 32 -80 32 -65 0 -83 -3 -98 -18z
m286 -122 c0 -20 -4 -19 -17 5 -8 15 -8 18 3 14 8 -3 14 -11 14 -19z m-430
-59 c0 -8 -6 -12 -12 -10 -6 3 -12 11 -12 18 0 8 6 12 12 10 6 -3 12 -11 12
-18z m398 -246 c-3 -5 -12 -10 -18 -10 -7 0 -6 4 3 10 19 12 23 12 15 0z
m-115 -26 c0 -8 -19 -13 -24 -6 -3 5 1 9 9 9 8 0 15 -2 15 -3z m-369 -21 c13
-16 12 -17 -3 -4 -10 7 -18 15 -18 17 0 8 8 3 21 -13z m-4 -73 c-1 -21 -10
-18 -13 5 -1 8 2 15 6 15 5 0 8 -9 7 -20z"/>
<path d="M2970 2845 c0 -8 2 -15 4 -15 2 0 6 7 10 15 3 8 1 15 -4 15 -6 0 -10
-7 -10 -15z"/>
<path d="M3208 2838 c3 -14 -2 -18 -27 -18 -24 0 -31 -4 -29 -16 2 -10 -4 -19
-12 -21 -13 -4 -13 -3 0 6 11 8 12 11 2 11 -8 0 -10 5 -6 13 4 7 3 9 -2 4 -5
-5 -10 -13 -10 -18 -1 -5 -2 -13 -3 -18 0 -5 -8 -8 -17 -7 -20 1 -25 -19 -25
-99 0 -93 1 -95 22 -95 12 0 19 -7 19 -19 0 -13 9 -21 30 -26 16 -4 33 -4 38
-1 5 3 9 -1 9 -9 0 -8 -5 -11 -10 -8 -6 4 -7 1 -2 -6 4 -7 15 -11 25 -8 11 3
29 -2 41 -11 12 -8 19 -10 15 -4 -5 8 -2 10 8 6 9 -3 16 -12 16 -20 0 -8 3
-13 8 -13 27 4 31 -4 28 -53 -5 -77 -5 -78 -13 -77 -19 3 -33 -2 -33 -12 0 -5
6 -7 13 -3 8 5 7 2 -2 -10 -11 -13 -16 -14 -22 -5 -5 9 -11 10 -21 2 -8 -7
-21 -8 -38 -1 -20 7 -22 11 -10 19 13 9 13 10 0 6 -8 -2 -16 -9 -16 -15 -3
-22 -4 -23 -18 -10 -10 9 -11 17 -3 26 6 7 6 12 1 11 -27 -5 -46 2 -41 15 3 8
-1 17 -10 20 -11 5 -14 2 -9 -11 5 -15 4 -15 -9 1 -8 11 -16 29 -16 40 -1 12
-2 26 -4 31 -1 6 -3 16 -3 23 -2 9 -7 10 -20 3 -10 -5 -24 -6 -33 -1 -12 7
-16 2 -18 -28 -1 -20 -4 -56 -5 -80 -2 -23 1 -45 7 -49 5 -3 33 -6 62 -6 36
-1 52 -5 52 -14 0 -10 -4 -10 -16 0 -14 10 -14 10 -3 -5 10 -13 31 -16 103
-16 60 0 87 3 83 10 -5 7 -2 8 7 2 24 -14 37 -13 55 7 9 10 28 19 41 19 12 0
22 3 22 8 -4 22 3 34 16 28 14 -5 20 11 16 37 -1 4 7 7 16 5 15 -3 19 7 23 60
6 71 -2 102 -25 102 -8 0 -15 9 -15 20 0 11 -3 20 -7 21 -5 0 -18 2 -31 3 -12
2 -28 8 -35 15 -9 10 -9 12 3 9 8 -2 19 -7 23 -13 5 -6 7 -4 5 4 -4 15 -20 20
-79 22 -26 2 -36 7 -35 18 0 8 -8 17 -19 19 -11 2 -27 6 -35 9 -8 3 -17 6 -20
5 -4 0 -5 62 -1 102 1 5 9 2 18 -5 11 -10 14 -10 9 -1 -5 8 -1 12 13 12 11 0
23 5 26 10 4 6 11 7 17 4 7 -4 8 -2 4 5 -4 6 -12 9 -17 6 -5 -4 -9 -2 -9 4 0
14 18 23 24 12 6 -9 60 -6 77 4 5 4 6 -1 3 -9 -3 -9 -11 -13 -18 -9 -6 4 -5
-1 3 -11 8 -9 20 -15 27 -12 7 3 16 1 19 -5 4 -5 11 -6 17 -3 7 4 8 2 4 -5 -4
-6 -12 -9 -17 -6 -5 3 -6 -1 -3 -9 7 -19 21 -21 27 -3 3 6 5 3 5 -8 1 -34 8
-75 16 -82 4 -4 16 3 27 17 20 24 20 24 9 2 -10 -21 -9 -23 6 -20 18 3 22 19
26 106 2 29 -1 52 -7 53 -5 1 -28 0 -49 -1 -31 -1 -38 1 -33 13 4 11 -2 15
-28 13 -18 -1 -32 1 -30 4 2 4 -21 6 -51 6 -37 -1 -58 -6 -65 -16 -9 -13 -10
-13 -6 1 4 13 -1 16 -22 15 -22 0 -27 -5 -23 -18z m27 3 c3 -5 2 -12 -3 -15
-5 -3 -9 1 -9 9 0 17 3 19 12 6z m180 -11 c-3 -5 -12 -10 -18 -10 -7 0 -6 4 3
10 19 12 23 12 15 0z m-155 -25 c7 -9 8 -15 2 -15 -5 0 -12 7 -16 15 -3 8 -4
15 -2 15 2 0 9 -7 16 -15z m-146 -44 c3 -5 0 -11 -7 -14 -8 -3 -14 1 -14 9 0
16 13 19 21 5z m-44 -321 c0 -5 -2 -10 -4 -10 -3 0 -8 5 -11 10 -3 6 -1 10 4
10 6 0 11 -4 11 -10z m284 -33 c-3 -33 -4 -37 -14 -37 -6 0 -6 9 0 24 6 16 5
26 -1 30 -5 2 -4 3 3 2 7 -2 12 -10 12 -19z m-4 -111 c0 -2 -7 -9 -15 -16 -13
-11 -14 -10 -9 4 5 14 24 23 24 12z"/>
<path d="M3495 2846 c-17 -12 -17 -13 3 -11 26 2 37 11 24 19 -5 3 -17 -1 -27
-8z"/>
<path d="M2490 2835 c13 -16 30 -11 30 8 0 7 -4 6 -10 -3 -6 -10 -10 -11 -10
-2 0 6 -5 12 -11 12 -8 0 -8 -5 1 -15z"/>
<path d="M1784 2818 c-3 -5 -9 -6 -14 -3 -4 3 -13 -2 -20 -10 -10 -12 -9 -16
3 -21 13 -4 15 -18 12 -60 -2 -39 0 -52 8 -47 7 4 6 -1 -2 -10 -8 -10 -12 -34
-9 -62 2 -27 -1 -44 -7 -41 -5 2 -9 8 -8 14 2 7 -4 9 -13 5 -15 -5 -15 -7 0
-15 9 -5 14 -13 11 -18 -3 -5 0 -12 6 -16 8 -5 9 -3 4 7 -6 11 -5 12 5 2 18
-17 6 -27 -17 -15 -15 8 -19 7 -19 -6 -6 -127 -8 -142 -21 -146 -9 -4 -11 -1
-7 6 5 7 3 8 -5 4 -7 -5 -10 -14 -7 -22 6 -15 1 -18 -47 -29 l-29 -6 29 -21
c43 -33 45 -35 28 -35 -8 0 -15 4 -15 9 0 5 -5 6 -10 3 -6 -3 -13 1 -16 9 -9
24 -23 19 -19 -5 5 -25 15 -38 15 -20 0 7 5 9 11 5 6 -4 25 -8 41 -9 l29 -3
-17 27 c-14 21 -14 23 -2 13 8 -7 22 -11 29 -9 8 2 11 2 7 0 -11 -7 -10 -33 2
-33 5 0 14 9 20 21 7 11 14 18 17 15 4 -3 13 0 21 7 11 8 14 8 9 0 -4 -6 -4
-13 0 -16 5 -2 2 -2 -4 -1 -7 2 -13 -2 -13 -9 0 -8 -4 -7 -11 3 -8 11 -10 11
-7 1 2 -8 19 -15 38 -16 19 -1 29 0 22 2 -10 4 -9 9 4 24 9 10 12 19 6 19 -6
0 -13 -6 -15 -12 -3 -7 -6 -1 -6 15 -1 15 -6 27 -12 27 -5 0 -7 -6 -3 -12 6
-10 5 -10 -7 -1 -19 15 -24 117 -5 106 8 -5 8 -3 1 8 -6 8 -10 21 -9 29 1 8 2
20 3 27 0 7 7 10 14 8 8 -4 13 8 15 37 1 24 4 57 6 73 2 17 -1 38 -6 49 -7 12
-7 16 0 12 6 -3 20 6 31 21 12 16 18 21 15 11 -4 -11 0 -16 13 -15 19 2 19 -2
26 -213 3 -88 4 -95 22 -92 11 2 17 1 13 -3 -3 -3 -2 -20 2 -36 5 -18 5 -27
-1 -24 -5 3 -6 -1 -3 -9 3 -9 10 -16 15 -16 4 0 7 -6 5 -12 -1 -7 -1 -10 1 -5
3 4 10 4 15 1 6 -4 8 -2 4 4 -3 6 -2 13 3 16 5 4 12 2 16 -4 10 -16 25 -1 25
26 0 16 6 24 18 25 14 0 14 2 -3 9 -19 8 -19 9 3 9 16 1 22 7 22 25 0 14 5 28
10 31 6 4 8 11 5 16 -4 5 -1 9 5 9 7 0 10 -7 6 -15 -3 -8 -1 -15 4 -15 10 0
15 27 12 62 -1 11 5 16 17 13 10 -2 18 2 18 9 0 6 3 23 6 38 6 21 3 30 -12 38
-24 12 -30 4 -27 -37 l2 -32 -27 20 c-22 15 -27 25 -23 46 3 15 2 25 -1 21
-11 -11 -13 -43 -3 -55 6 -8 6 -18 -2 -30 -9 -16 -10 -15 -4 6 3 14 2 21 -3
18 -5 -4 -10 -1 -10 6 0 7 -3 33 -6 60 -4 35 -3 45 6 40 8 -4 8 -1 -1 9 -7 9
-12 20 -11 24 5 32 -3 104 -11 99 -5 -3 -10 -1 -10 4 0 6 4 11 8 11 5 0 9 7 9
15 0 11 -3 12 -14 3 -11 -9 -13 -8 -11 2 2 11 -17 14 -90 15 -52 0 -96 -3 -98
-7z m11 -75 c0 -21 5 -41 10 -45 6 -5 3 -8 -7 -8 -9 0 -20 5 -23 10 -3 6 -1
10 6 10 9 0 9 3 0 14 -9 11 -10 20 -1 35 15 28 16 27 15 -16z m79 -18 c3 -8 1
-15 -3 -15 -5 0 -11 7 -15 15 -3 8 -1 15 3 15 5 0 11 -7 15 -15z m191 -215 c3
-5 -1 -10 -10 -10 -9 0 -13 5 -10 10 3 6 8 10 10 10 2 0 7 -4 10 -10z m-150
-87 c1 -12 -3 -19 -10 -17 -14 6 -17 46 -3 42 6 -2 12 -14 13 -25z m-251 -105
c-3 -4 -11 -5 -19 -1 -21 7 -19 12 4 10 11 0 18 -5 15 -9z"/>
<path d="M2466 2795 c-16 -12 -17 -15 -4 -15 9 0 18 7 22 15 7 18 6 18 -18 0z"/>
<path d="M3225 2691 c-3 -5 -2 -12 3 -15 5 -3 9 1 9 9 0 17 -3 19 -12 6z"/>
<path d="M1822 2678 c-17 -17 -15 -33 2 -19 7 6 22 8 32 5 20 -7 19 -6 -7 14
-12 9 -18 9 -27 0z"/>
<path d="M2745 2650 c-3 -5 -1 -10 4 -10 6 0 11 5 11 10 0 6 -2 10 -4 10 -3 0
-8 -4 -11 -10z"/>
<path d="M1824 2638 c-5 -7 -2 -9 8 -5 9 3 22 0 29 -6 11 -10 11 -9 0 6 -16
20 -27 22 -37 5z"/>
<path d="M3020 2480 c6 -11 13 -20 16 -20 2 0 0 9 -6 20 -6 11 -13 20 -16 20
-2 0 0 -9 6 -20z"/>
<path d="M1776 2478 c3 -5 10 -6 15 -3 13 9 11 12 -6 12 -8 0 -12 -4 -9 -9z"/>
<path d="M3490 2466 c0 -2 7 -7 16 -10 8 -3 12 -2 9 4 -6 10 -25 14 -25 6z"/>
<path d="M2447 2419 c7 -7 15 -10 18 -7 3 3 -2 9 -12 12 -14 6 -15 5 -6 -5z"/>
<path d="M2966 2303 c6 -33 14 -43 14 -19 0 11 4 15 13 10 9 -6 9 -5 0 8 -7 8
-10 18 -6 21 3 4 -1 7 -10 7 -12 0 -14 -7 -11 -27z"/>
<path d="M2355 2300 c-3 -5 -1 -10 4 -10 6 0 11 5 11 10 0 6 -2 10 -4 10 -3 0
-8 -4 -11 -10z"/>
<path d="M1575 2289 c-4 -6 -5 -12 -2 -15 2 -3 7 2 10 11 7 17 1 20 -8 4z"/>
<path d="M2562 2277 c-8 -10 -6 -13 9 -14 19 -2 26 11 10 21 -5 3 -14 0 -19
-7z"/>
<path d="M1499 2083 c-13 -16 -12 -17 4 -4 16 13 21 21 13 21 -2 0 -10 -8 -17
-17z"/>
<path d="M3611 2084 c0 -11 3 -14 6 -6 3 7 2 16 -1 19 -3 4 -6 -2 -5 -13z"/>
<path d="M3575 2009 c-4 -6 -5 -12 -2 -15 2 -3 7 2 10 11 7 17 1 20 -8 4z"/>
<path d="M3966 3361 c-4 -5 -2 -12 4 -16 6 -4 8 -10 5 -15 -3 -5 -1 -11 3 -14
10 -6 10 40 0 49 -3 4 -9 2 -12 -4z"/>
<path d="M4960 2756 c0 -2 7 -7 16 -10 8 -3 12 -2 9 4 -6 10 -25 14 -25 6z"/>
<path d="M4695 2440 c3 -5 8 -10 11 -10 2 0 4 5 4 10 0 6 -5 10 -11 10 -5 0
-7 -4 -4 -10z"/>
<path d="M4965 2400 c-3 -5 -1 -10 4 -10 6 0 11 5 11 10 0 6 -2 10 -4 10 -3 0
-8 -4 -11 -10z"/>
<path d="M4736 2213 c-6 -14 -5 -15 5 -6 7 7 10 15 7 18 -3 3 -9 -2 -12 -12z"/>
<path d="M4735 2142 c0 -26 6 -47 13 -50 13 -4 12 24 -1 46 -5 6 -4 12 0 12 5
0 9 8 9 18 0 10 -5 19 -11 19 -7 0 -11 -18 -10 -45z"/>
<path d="M4849 2043 c-13 -16 -12 -17 4 -4 16 13 21 21 13 21 -2 0 -10 -8 -17
-17z"/>
<path d="M364 2977 c1 -19 6 -34 12 -34 13 0 11 60 -3 64 -5 2 -9 -11 -9 -30z"/>
<path d="M370 2920 c0 -5 5 -10 10 -10 6 0 10 5 10 10 0 6 -4 10 -10 10 -5 0
-10 -4 -10 -10z"/>
<path d="M361 2884 c0 -11 3 -14 6 -6 3 7 2 16 -1 19 -3 4 -6 -2 -5 -13z"/>
<path d="M375 2860 c-3 -5 -1 -10 4 -10 6 0 11 5 11 10 0 6 -2 10 -4 10 -3 0
-8 -4 -11 -10z"/>
<path d="M455 2400 c3 -5 8 -10 11 -10 2 0 4 5 4 10 0 6 -5 10 -11 10 -5 0 -7
-4 -4 -10z"/>
<path d="M142 2326 c7 -8 15 -12 17 -11 5 6 -10 25 -20 25 -5 0 -4 -6 3 -14z"/>
<path d="M225 2049 c-4 -6 -5 -12 -2 -15 2 -3 7 2 10 11 7 17 1 20 -8 4z"/>
<path d="M1013 3005 c0 -8 4 -12 9 -9 5 3 6 10 3 15 -9 13 -12 11 -12 -6z"/>
<path d="M966 2808 c3 -5 10 -6 15 -3 13 9 11 12 -6 12 -8 0 -12 -4 -9 -9z"/>
<path d="M4490 2760 c0 -5 5 -10 10 -10 6 0 10 5 10 10 0 6 -4 10 -10 10 -5 0
-10 -4 -10 -10z"/>
<path d="M4480 2729 c0 -5 5 -7 10 -4 6 3 10 8 10 11 0 2 -4 4 -10 4 -5 0 -10
-5 -10 -11z"/>
<path d="M4338 2543 c7 -3 16 -2 19 1 4 3 -2 6 -13 5 -11 0 -14 -3 -6 -6z"/>
<path d="M861 2397 c-8 -10 -7 -14 2 -14 8 0 14 6 14 14 0 7 -1 13 -2 13 -2 0
-8 -6 -14 -13z"/>
<path d="M775 1811 c-3 -5 -2 -12 3 -15 5 -3 9 1 9 9 0 17 -3 19 -12 6z"/>
<path d="M695 1740 c3 -5 11 -10 16 -10 6 0 7 5 4 10 -3 6 -11 10 -16 10 -6 0
-7 -4 -4 -10z"/>
<path d="M697 1709 c7 -7 15 -10 18 -7 3 3 -2 9 -12 12 -14 6 -15 5 -6 -5z"/>
<path d="M700 1681 c0 -6 4 -13 10 -16 6 -3 7 1 4 9 -7 18 -14 21 -14 7z"/>
<path d="M896 1558 c3 -5 10 -6 15 -3 13 9 11 12 -6 12 -8 0 -12 -4 -9 -9z"/>
<path d="M884 1529 c-10 -17 13 -36 27 -22 12 12 4 33 -11 33 -5 0 -12 -5 -16
-11z"/>
<path d="M929 1473 c-10 -11 -10 -14 -1 -9 14 9 15 1 3 -23 -8 -13 -5 -17 12
-18 12 0 16 1 10 4 -7 3 -13 9 -13 14 0 6 5 7 11 3 8 -5 8 -1 0 14 -8 15 -8
22 2 25 7 4 8 6 1 6 -6 1 -18 -7 -25 -16z"/>
<path d="M1095 1429 c-4 -6 -5 -12 -2 -15 2 -3 7 2 10 11 7 17 1 20 -8 4z"/>
<path d="M972 1407 c-7 -8 -7 -18 -2 -27 7 -11 10 -12 10 -2 0 7 4 11 9 8 5
-4 8 1 7 9 -3 22 -12 27 -24 12z"/>
<path d="M1019 1313 c-13 -16 -12 -17 4 -4 9 7 17 15 17 17 0 8 -8 3 -21 -13z"/>
<path d="M1133 1225 c0 -8 4 -12 9 -9 5 3 6 10 3 15 -9 13 -12 11 -12 -6z"/>
<path d="M969 1147 c0 -1 -2 -11 -3 -23 -2 -17 3 -21 23 -19 37 3 41 4 41 14
0 7 -58 34 -61 28z m41 -25 c0 -5 -7 -9 -15 -9 -8 0 -12 4 -9 9 3 4 9 8 15 8
5 0 9 -4 9 -8z"/>
<path d="M815 1120 c4 -6 11 -8 16 -5 14 9 11 15 -7 15 -8 0 -12 -5 -9 -10z"/>
<path d="M1030 1089 c0 -6 7 -8 16 -5 14 5 15 4 5 -8 -9 -11 -9 -16 0 -22 8
-4 9 -3 5 4 -4 7 -3 12 3 12 11 0 26 -20 26 -34 0 -5 14 -11 30 -12 21 -2 25
-1 12 4 -10 4 -18 11 -18 15 3 25 0 32 -8 19 -6 -10 -10 -10 -21 3 -7 8 -9 15
-4 15 14 0 -19 20 -33 20 -7 0 -13 -5 -13 -11z"/>
<path d="M1305 720 c3 -5 8 -10 11 -10 2 0 4 5 4 10 0 6 -5 10 -11 10 -5 0 -7
-4 -4 -10z"/>
<path d="M4613 2523 c4 -3 1 -13 -6 -22 -11 -14 -10 -14 5 -2 16 12 16 31 1
31 -4 0 -3 -3 0 -7z"/>
<path d="M4660 2322 c0 -6 -8 -9 -17 -6 -15 5 -16 4 -3 -5 16 -11 40 3 27 16
-4 3 -7 1 -7 -5z"/>
<path d="M4656 2275 c-9 -26 -7 -32 5 -12 6 10 9 21 6 23 -2 3 -7 -2 -11 -11z"/>
<path d="M4610 1979 c0 -5 5 -7 10 -4 6 3 10 8 10 11 0 2 -4 4 -10 4 -5 0 -10
-5 -10 -11z"/>
<path d="M4543 1763 c4 -6 2 -13 -5 -15 -8 -3 -6 -6 4 -10 17 -7 19 15 3 29
-4 4 -5 3 -2 -4z"/>
<path d="M3606 1198 c3 -5 10 -6 15 -3 13 9 11 12 -6 12 -8 0 -12 -4 -9 -9z"/>
<path d="M3390 1166 c0 -2 7 -6 15 -10 8 -3 15 -1 15 4 0 6 -7 10 -15 10 -8 0
-15 -2 -15 -4z"/>
<path d="M2090 520 c0 -5 5 -10 10 -10 6 0 10 5 10 10 0 6 -4 10 -10 10 -5 0
-10 -4 -10 -10z"/>
<path d="M2210 520 c0 -5 5 -10 10 -10 6 0 10 5 10 10 0 6 -4 10 -10 10 -5 0
-10 -4 -10 -10z"/>
<path d="M2120 516 c0 -2 7 -7 16 -10 8 -3 12 -2 9 4 -6 10 -25 14 -25 6z"/>
<path d="M2333 485 c0 -8 4 -15 9 -15 4 0 8 4 8 9 0 6 -4 12 -8 15 -5 3 -9 -1
-9 -9z"/>
<path d="M4083 1133 c0 -10 4 -24 10 -31 15 -19 28 7 16 30 -12 23 -26 23 -26
1z m22 -13 c3 -5 1 -10 -4 -10 -6 0 -11 5 -11 10 0 6 2 10 4 10 3 0 8 -4 11
-10z"/>
<path d="M4044 1085 c-7 -17 0 -28 20 -31 16 -2 14 38 -2 44 -7 2 -15 -4 -18
-13z"/>
<path d="M3773 1071 c0 -11 5 -18 9 -15 4 3 5 11 1 19 -7 21 -12 19 -10 -4z"/>
<path d="M4024 1052 c3 -6 1 -14 -6 -19 -7 -4 -13 -17 -13 -28 0 -11 -7 -21
-15 -21 -8 -1 -19 -2 -24 -3 -5 0 -2 -9 5 -18 10 -11 10 -14 2 -9 -8 4 -13 1
-13 -8 0 -23 30 -8 41 21 5 15 15 23 22 20 8 -3 14 1 14 9 0 7 -5 11 -11 8 -6
-3 -2 2 8 10 11 9 14 16 7 16 -7 0 -10 4 -6 9 3 5 0 13 -6 17 -7 4 -9 3 -5 -4z"/>
<path d="M3500 1040 c-8 -5 -10 -10 -5 -10 6 0 17 5 25 10 8 5 11 10 5 10 -5
0 -17 -5 -25 -10z"/>
<path d="M3110 1032 c0 -5 7 -9 15 -9 8 0 12 4 9 9 -3 4 -9 8 -15 8 -5 0 -9
-4 -9 -8z"/>
<path d="M3450 1036 c0 -2 7 -7 16 -10 8 -3 12 -2 9 4 -6 10 -25 14 -25 6z"/>
<path d="M3737 1013 c-11 -11 -8 -21 9 -27 14 -5 15 -4 5 8 -9 11 -9 15 1 19
7 3 8 6 2 6 -6 1 -14 -2 -17 -6z"/>
<path d="M3669 964 c-8 -10 -8 -14 0 -14 6 0 11 5 11 12 0 6 6 3 14 -8 8 -10
18 -16 22 -11 4 4 2 7 -4 7 -7 0 -12 5 -12 11 0 5 6 7 13 3 6 -4 8 -3 4 1 -13
15 -35 14 -48 -1z"/>
<path d="M3640 942 c0 -6 -9 -9 -20 -7 -11 2 -19 1 -19 -3 3 -20 -2 -32 -11
-27 -6 4 -7 -1 -3 -11 5 -13 3 -15 -8 -8 -23 15 -57 12 -54 -5 1 -9 -9 -21
-23 -28 -28 -15 -44 -17 -22 -3 13 9 13 10 -1 10 -18 0 -59 -29 -44 -31 39 -7
82 -3 78 7 -5 13 24 27 38 18 5 -3 9 2 9 11 0 10 -5 13 -12 9 -7 -4 -8 -3 -4
4 4 6 13 9 21 6 8 -4 13 -9 10 -13 -2 -4 2 -8 10 -8 8 0 13 2 10 5 -9 9 16 41
29 36 13 -5 31 34 21 45 -3 2 -5 -1 -5 -7z"/>
<path d="M3930 929 c-8 -5 -11 -9 -6 -9 5 0 3 -7 -4 -15 -7 -8 -16 -13 -20
-10 -5 3 -12 0 -16 -6 -4 -7 -3 -9 4 -5 6 3 13 2 16 -3 3 -5 -4 -11 -15 -14
-18 -5 -19 -8 -8 -29 6 -13 8 -20 4 -16 -5 4 -15 2 -23 -5 -13 -10 -14 -8 -7
13 7 24 6 24 -8 6 -19 -26 -15 -50 10 -54 14 -2 22 4 26 17 3 12 13 21 24 21
15 0 16 2 3 10 -13 8 -12 10 4 10 14 0 16 3 7 13 -15 19 -1 30 18 14 14 -11
15 -10 1 7 -13 18 -13 19 0 14 11 -4 16 1 18 18 2 27 -8 36 -28 23z"/>
<path d="M3371 810 c-23 -13 -2 -30 37 -30 28 0 33 3 22 10 -12 8 -12 10 5 10
17 0 17 2 5 10 -19 12 -43 13 -35 1 3 -5 0 -13 -6 -17 -7 -4 -9 -3 -5 4 9 14
-7 23 -23 12z"/>
<path d="M3250 759 c0 -5 5 -7 10 -4 6 3 10 8 10 11 0 2 -4 4 -10 4 -5 0 -10
-5 -10 -11z"/>
<path d="M3597 694 c-4 -4 -7 -11 -7 -15 0 -9 27 -5 37 6 4 4 3 5 -4 2 -6 -4
-13 -2 -15 4 -2 5 -7 7 -11 3z"/>
<path d="M3270 679 c0 -5 5 -7 10 -4 6 3 10 8 10 11 0 2 -4 4 -10 4 -5 0 -10
-5 -10 -11z"/>
<path d="M3308 673 c7 -3 16 -2 19 1 4 3 -2 6 -13 5 -11 0 -14 -3 -6 -6z"/>
<path d="M2366 915 c4 -8 11 -15 16 -15 6 0 5 6 -2 15 -7 8 -14 15 -16 15 -2
0 -1 -7 2 -15z"/>
<path d="M2415 800 c-3 -5 -2 -10 4 -10 5 0 13 5 16 10 3 6 2 10 -4 10 -5 0
-13 -4 -16 -10z"/>
<path d="M2766 652 c-3 -6 -1 -14 5 -17 15 -10 25 3 12 16 -7 7 -13 7 -17 1z"/>
<path d="M2191 394 c0 -11 3 -14 6 -6 3 7 2 16 -1 19 -3 4 -6 -2 -5 -13z"/>
<path d="M2230 399 c0 -5 -5 -7 -12 -3 -7 4 -8 3 -4 -4 4 -6 13 -9 21 -5 17 6
20 23 5 23 -5 0 -10 -5 -10 -11z"/>
<path d="M3000 406 c0 -2 8 -10 18 -17 15 -13 16 -12 3 4 -13 16 -21 21 -21
13z"/>
<path d="M2806 164 c-5 -14 -4 -15 9 -4 17 14 19 20 6 20 -5 0 -12 -7 -15 -16z"/>
<path d="M3210 4969 c0 -5 5 -7 10 -4 6 3 10 8 10 11 0 2 -4 4 -10 4 -5 0 -10
-5 -10 -11z"/>
<path d="M1965 4929 c-11 -16 -1 -19 13 -3 7 8 8 14 3 14 -5 0 -13 -5 -16 -11z"/>
<path d="M1515 4680 c-3 -5 -2 -10 4 -10 5 0 13 5 16 10 3 6 2 10 -4 10 -5 0
-13 -4 -16 -10z"/>
<path d="M3725 4651 c-9 -15 15 -25 28 -12 9 9 7 10 -7 5 -13 -5 -17 -4 -12 4
4 7 5 12 2 12 -3 0 -7 -4 -11 -9z"/>
<path d="M41 2983 c-1 -17 16 -25 25 -12 4 7 3 9 -4 5 -5 -3 -13 0 -15 6 -4 9
-6 10 -6 1z"/>
<path d="M9 2833 c-13 -16 -12 -17 4 -4 9 7 17 15 17 17 0 8 -8 3 -21 -13z"/>
<path d="M95 2080 c3 -5 8 -10 11 -10 2 0 4 5 4 10 0 6 -5 10 -11 10 -5 0 -7
-4 -4 -10z"/>
<path d="M4940 1830 c-9 -6 -10 -10 -3 -10 6 0 15 5 18 10 8 12 4 12 -15 0z"/>
<path d="M249 1793 c-13 -16 -12 -17 4 -4 9 7 17 15 17 17 0 8 -8 3 -21 -13z"/>
<path d="M4825 1681 c-3 -5 -2 -12 3 -15 5 -3 9 1 9 9 0 17 -3 19 -12 6z"/>
<path d="M4655 1390 c-3 -6 1 -7 9 -4 18 7 21 14 7 14 -6 0 -13 -4 -16 -10z"/>
<path d="M1616 395 c-3 -8 -1 -15 4 -15 6 0 10 7 10 15 0 8 -2 15 -4 15 -2 0
-6 -7 -10 -15z"/>
<path d="M3506 399 c2 -4 -2 -10 -8 -12 -8 -4 -9 -6 -2 -6 6 -1 17 5 23 12 8
10 7 14 -4 14 -8 0 -12 -4 -9 -8z"/>
<path d="M1656 353 c-6 -14 -5 -15 5 -6 7 7 10 15 7 18 -3 3 -9 -2 -12 -12z"/>
<path d="M3382 315 c-11 -12 -10 -15 3 -15 8 0 15 7 15 15 0 18 -2 18 -18 0z"/>
<path d="M3195 199 c-4 -6 -5 -12 -2 -15 2 -3 7 2 10 11 7 17 1 20 -8 4z"/>
</g>
</svg>
